<svg width="85pt" height="14pt" viewBox="0 0 85 14" xmlns="http://www.w3.org/2000/svg"><g id="fontsvg1673850383636" stroke-linecap="round" fill-rule="evenodd" fill="#ffffff"><path d="M 81.006 0.703 L 82.979 0.146 Q 84.063 0.234 84.678 1.27 L 84.531 2.256 L 84.678 2.686 L 84.531 11.143 L 84.678 12.412 L 83.975 13.115 L 82.412 13.252 L 81.855 13.115 A 2.718 2.718 0 0 1 80.463 12.438 A 3.596 3.596 0 0 1 80.156 12.129 L 77.48 6.768 A 3.017 3.017 0 0 0 76.924 6.083 A 4.137 4.137 0 0 0 76.357 5.645 L 77.061 7.471 L 77.48 12.129 Q 77.1 13.037 76.074 13.398 L 74.951 13.535 L 74.521 13.398 L 73.955 13.115 L 73.535 12.129 Q 73.633 11.65 73.672 11.006 L 73.535 8.32 L 73.672 7.188 L 73.535 6.914 L 73.535 3.389 A 14.217 14.217 0 0 0 73.397 2.089 A 17.028 17.028 0 0 0 73.252 1.27 A 2.443 2.443 0 0 1 74.606 0.376 A 3.433 3.433 0 0 1 75.088 0.283 L 77.48 0.43 L 80.303 5.645 A 2.409 2.409 0 0 0 81.153 6.783 A 3.31 3.31 0 0 0 81.572 7.051 L 81.006 5.361 L 80.586 1.553 A 2.193 2.193 0 0 1 80.765 1.091 A 3.003 3.003 0 0 1 81.006 0.703 Z M 55.078 0.371 L 57.344 0.508 A 2.596 2.596 0 0 1 58.278 1.33 A 3.629 3.629 0 0 1 58.623 1.934 L 58.203 4.199 A 4.263 4.263 0 0 1 57.882 4.822 A 5.305 5.305 0 0 1 57.627 5.195 L 58.477 5.332 A 9.418 9.418 0 0 1 59.494 4.171 A 10.751 10.751 0 0 1 59.766 3.916 A 8.008 8.008 0 0 1 60.239 2.859 A 9.796 9.796 0 0 1 60.615 2.217 L 61.885 0.938 A 8.734 8.734 0 0 1 62.8 0.667 A 11.297 11.297 0 0 1 63.594 0.508 L 65.713 0.508 L 66.133 0.791 L 66.563 1.504 L 64.443 3.486 A 7.808 7.808 0 0 1 63.471 4.26 A 9.513 9.513 0 0 1 62.881 4.629 A 2.778 2.778 0 0 0 62.502 5.644 A 3.631 3.631 0 0 0 62.451 6.182 L 63.594 7.744 L 64.863 9.023 A 11.393 11.393 0 0 0 65.396 10.263 A 13.658 13.658 0 0 0 65.713 10.859 A 9.064 9.064 0 0 1 66.423 11.99 A 10.871 10.871 0 0 1 66.709 12.568 A 2.243 2.243 0 0 1 65.161 13.275 A 3.008 3.008 0 0 1 65 13.281 L 63.164 13.418 L 62.734 13.281 L 60.615 10.01 L 59.902 8.164 A 6.506 6.506 0 0 0 58.729 9.055 A 7.465 7.465 0 0 0 58.477 9.307 L 58.34 9.873 L 58.623 11.289 L 58.623 11.572 A 2.672 2.672 0 0 1 58.246 12.815 A 3.59 3.59 0 0 1 57.92 13.281 L 55.645 13.418 Q 54.834 13.008 54.648 11.992 L 54.512 10.156 L 54.648 9.727 L 54.795 8.594 L 54.648 8.32 L 54.512 4.766 L 54.648 2.354 A 5.738 5.738 0 0 1 54.8 1.285 A 7.693 7.693 0 0 1 55.078 0.371 Z M 44.287 1.084 L 46.084 0.254 L 47.598 0.391 L 48.154 0.254 L 48.564 0.254 L 51.875 1.904 L 52.578 2.461 L 52.295 3.564 A 10.128 10.128 0 0 1 50.886 4.733 A 11.196 11.196 0 0 1 50.781 4.805 A 6.92 6.92 0 0 1 49.234 4.41 A 8.036 8.036 0 0 1 48.838 4.248 A 8.227 8.227 0 0 0 47.76 3.955 A 10.135 10.135 0 0 0 47.051 3.838 Q 46.254 3.926 46.114 4.625 A 1.66 1.66 0 0 0 46.084 4.951 L 48.428 5.225 L 50.508 5.771 Q 51.27 6.162 52.021 6.875 A 7.79 7.79 0 0 1 52.832 8.611 A 8.619 8.619 0 0 1 52.852 8.672 L 52.295 10.889 L 51.191 12.402 L 49.531 13.359 L 47.598 13.643 L 47.324 13.506 L 46.357 13.643 L 45.938 13.359 L 45.527 13.506 L 45.117 13.506 Q 44.18 13.281 43.184 12.813 L 41.797 11.572 A 3.433 3.433 0 0 1 41.582 11.11 Q 41.491 10.874 41.419 10.598 A 6.099 6.099 0 0 1 41.387 10.469 L 42.07 9.912 L 43.73 8.945 Q 44.561 9.15 45.391 9.639 A 8.942 8.942 0 0 0 46.497 9.99 A 11.532 11.532 0 0 0 47.461 10.186 A 5.596 5.596 0 0 0 48.802 9.644 A 6.706 6.706 0 0 0 49.258 9.365 Q 48.438 8.926 47.324 8.672 L 45.527 8.398 L 45.117 8.535 L 43.457 7.842 L 42.354 6.318 L 42.07 4.121 A 10.545 10.545 0 0 1 42.625 2.834 A 12.37 12.37 0 0 1 42.9 2.324 L 44.287 1.084 Z M 20.527 0.42 L 22.354 0 A 1.634 1.634 0 0 1 23.47 0.886 A 2.463 2.463 0 0 1 23.623 1.26 L 23.906 2.949 A 7.185 7.185 0 0 0 23.667 4.173 A 8.671 8.671 0 0 0 23.623 4.775 L 23.477 6.602 L 23.623 8.574 L 23.34 10.684 L 22.354 11.953 L 20.947 12.93 L 19.121 13.496 L 17.715 13.213 L 17.148 13.359 L 15.469 12.793 A 8.289 8.289 0 0 1 14.588 12.061 A 9.807 9.807 0 0 1 14.199 11.67 L 13.076 10.4 A 14.191 14.191 0 0 0 12.917 8.971 A 16.79 16.79 0 0 0 12.793 8.291 L 13.076 7.305 L 12.93 6.465 L 13.076 5.898 L 12.93 4.355 L 13.076 3.789 L 12.93 2.246 A 3.701 3.701 0 0 1 13.165 1.007 A 4.579 4.579 0 0 1 13.359 0.557 L 14.766 0.273 L 15.186 0.42 L 16.445 0.273 L 16.729 0.703 L 17.012 2.109 L 16.729 2.666 L 16.592 6.748 L 16.729 8.711 A 9.374 9.374 0 0 0 17.14 9.287 Q 17.366 9.581 17.637 9.891 A 15.534 15.534 0 0 0 17.715 9.98 L 18.984 10.117 L 19.541 9.697 L 20.107 8.008 L 19.824 2.383 L 19.688 1.963 L 19.824 1.826 A 3.389 3.389 0 0 1 20.463 0.501 A 3.947 3.947 0 0 1 20.527 0.42 Z M 24.336 0.264 L 25.332 0.4 L 25.615 0.264 L 26.045 0.264 L 27.764 0.547 L 29.326 2.969 L 29.902 4.404 Q 30.322 4.16 30.615 3.682 L 31.318 2.402 A 5.506 5.506 0 0 1 31.929 1.278 A 6.226 6.226 0 0 1 32.041 1.123 A 5.081 5.081 0 0 1 33.467 0.547 L 35.039 0.693 A 3.624 3.624 0 0 1 36.02 0.977 A 4.322 4.322 0 0 1 36.318 1.123 Q 36.211 1.719 35.889 2.402 L 34.893 3.398 L 33.184 5.547 L 32.471 6.826 A 7.137 7.137 0 0 0 32.05 7.508 A 9.189 9.189 0 0 0 31.748 8.115 L 32.041 9.688 L 31.904 10.967 L 32.041 11.396 L 32.178 12.539 L 31.904 12.969 L 30.469 13.535 L 28.76 13.242 A 6.094 6.094 0 0 1 28.212 12.58 A 7.606 7.606 0 0 1 27.9 12.109 L 28.184 10.391 L 27.9 8.682 L 28.184 8.252 L 27.9 7.393 L 25.615 3.828 L 24.619 2.832 L 23.76 1.689 Q 23.936 1.016 24.336 0.264 Z M 0 0.938 L 0.713 0.371 L 7.373 0.508 A 5.578 5.578 0 0 1 9.042 1.063 A 7.019 7.019 0 0 1 9.785 1.504 A 3.964 3.964 0 0 1 10.552 3.231 A 5.151 5.151 0 0 1 10.635 3.916 L 10.771 5.195 L 9.639 6.045 L 10.635 7.314 A 10.328 10.328 0 0 1 11.133 8.765 A 12.678 12.678 0 0 1 11.348 9.727 A 7.389 7.389 0 0 1 10.674 11.4 A 9.041 9.041 0 0 1 10.215 12.148 A 8.403 8.403 0 0 1 9.191 12.723 Q 8.655 12.98 8.028 13.201 A 14.383 14.383 0 0 1 7.793 13.281 L 6.807 13.418 L 6.523 13.281 L 2.695 13.418 L 2.266 13.281 L 1.846 13.281 L 1.846 13.418 A 2.97 2.97 0 0 1 0.06 11.846 A 3.892 3.892 0 0 1 0 11.719 L 0.283 8.74 L 0.137 7.314 L 0.283 5.762 L 0 0.938 Z M 68.066 0.762 L 69.883 0.195 L 71.709 0.898 L 71.563 2.861 L 71.426 3.281 L 71.709 4.404 L 71.563 4.824 L 71.563 6.641 L 71.709 6.641 L 71.563 6.777 L 71.426 8.047 L 71.563 8.457 L 71.563 9.023 L 71.709 10.137 L 71.563 10.42 L 71.563 10.84 L 71.709 12.383 L 71.563 12.939 A 6.547 6.547 0 0 1 70.598 13.298 A 8.559 8.559 0 0 1 69.746 13.496 A 8.681 8.681 0 0 1 67.923 12.805 A 10.897 10.897 0 0 1 67.92 12.803 L 67.92 11.26 L 67.783 11.26 L 67.92 10.703 L 68.066 9.023 L 67.92 7.061 L 68.066 4.961 A 12.859 12.859 0 0 1 67.959 3.944 Q 67.925 3.441 67.921 2.885 A 20.906 20.906 0 0 1 67.92 2.725 L 67.783 1.182 L 68.066 0.762 Z M 4.824 8.32 L 3.828 8.027 A 5.463 5.463 0 0 0 4.031 9.478 A 6.728 6.728 0 0 0 4.258 10.156 A 14.912 14.912 0 0 0 5.406 10.036 Q 6.189 9.924 7.09 9.727 L 7.373 8.457 L 6.387 8.027 L 4.824 8.32 Z M 4.541 3.633 L 4.111 3.35 L 3.828 4.766 L 3.965 5.332 L 4.395 5.332 A 15.658 15.658 0 0 1 5.621 5.141 A 19.775 19.775 0 0 1 6.66 5.049 L 7.236 4.063 L 6.387 3.633 L 5.674 3.779 L 5.254 3.633 L 4.541 3.633 Z M 56.211 7.031 L 56.074 8.164 L 56.494 8.457 A 1.263 1.263 0 0 0 57.121 9.261 A 1.738 1.738 0 0 0 57.207 9.307 A 3.714 3.714 0 0 1 56.981 8.822 Q 56.866 8.522 56.777 8.164 L 57.207 7.744 A 2.548 2.548 0 0 0 56.395 7.116 A 3.04 3.04 0 0 0 56.211 7.031 Z M 82.979 9.453 L 82.559 9.17 L 82.412 10.43 L 82.139 11.289 A 0.253 0.253 0 0 0 82.257 11.492 Q 82.299 11.521 82.357 11.544 A 0.721 0.721 0 0 0 82.412 11.563 A 2.406 2.406 0 0 0 82.628 10.942 Q 82.686 10.664 82.694 10.347 A 4.071 4.071 0 0 0 82.695 10.293 L 82.979 9.453 Z M 29.756 9.111 L 29.18 9.824 L 30.332 10.82 L 30.186 10.117 L 30.332 9.961 A 1.992 1.992 0 0 0 29.878 9.23 A 2.404 2.404 0 0 0 29.756 9.111 Z M 29.473 6.25 L 29.609 7.256 L 29.326 7.686 L 30.186 7.686 A 3.428 3.428 0 0 0 29.473 6.25 Z M 75.928 3.809 L 75.225 2.686 L 74.951 3.672 L 74.951 4.092 L 75.928 3.809 Z M 3.828 7.178 L 2.832 6.182 L 2.979 7.461 L 3.828 7.178 Z M 81.436 10.576 L 81.152 9.307 L 80.586 9.873 A 4.316 4.316 0 0 1 81.066 10.23 A 5.545 5.545 0 0 1 81.436 10.576 Z M 69.6 10.42 L 69.463 11.26 L 69.6 11.543 L 69.883 11.826 Q 69.873 11.152 69.6 10.42 Z M 56.357 10.303 A 3.177 3.177 0 0 0 56.573 11.274 A 4.006 4.006 0 0 0 56.777 11.719 A 4.196 4.196 0 0 0 56.52 10.681 A 5.042 5.042 0 0 0 56.357 10.303 Z M 9.355 10.01 L 8.086 10.303 L 8.652 10.586 A 1.077 1.077 0 0 0 9.007 10.438 A 0.94 0.94 0 0 0 9.355 10.01 Z M 81.992 7.617 L 81.572 8.467 L 81.992 8.75 L 82.275 7.891 A 0.287 0.287 0 0 0 82.165 7.708 Q 82.098 7.654 81.992 7.617 Z M 14.766 9.561 L 14.482 8.438 L 14.199 9.414 L 14.766 9.561 Z M 77.627 4.648 A 3.14 3.14 0 0 0 78.103 5.513 A 3.818 3.818 0 0 0 78.33 5.781 A 2.16 2.16 0 0 0 77.995 5.072 A 2.984 2.984 0 0 0 77.627 4.648 Z M 75.508 10.293 L 75.088 11.006 L 75.508 11.289 L 75.928 11.006 A 1.784 1.784 0 0 0 75.656 10.473 A 2.203 2.203 0 0 0 75.508 10.293 Z M 76.357 1.973 L 75.654 2.393 L 76.631 2.686 A 2.313 2.313 0 0 0 76.604 2.455 Q 76.541 2.079 76.357 1.973 Z M 44.424 3.291 A 5.259 5.259 0 0 0 44.913 4.124 A 6.126 6.126 0 0 0 45.117 4.395 A 2.517 2.517 0 0 0 44.71 3.617 A 3.209 3.209 0 0 0 44.424 3.291 Z M 48.008 6.465 A 2.604 2.604 0 0 0 48.54 7.178 A 3.272 3.272 0 0 0 48.838 7.432 A 2.846 2.846 0 0 0 48.324 6.744 A 3.571 3.571 0 0 0 48.008 6.465 Z M 46.084 6.045 L 45.938 6.875 L 46.641 6.738 Q 46.504 6.289 46.084 6.045 Z M 6.807 6.611 L 6.523 7.178 L 7.373 7.314 A 1.019 1.019 0 0 0 6.876 6.649 A 1.287 1.287 0 0 0 6.807 6.611 Z M 70.166 5.381 L 69.043 4.961 A 1.362 1.362 0 0 0 69.641 5.305 Q 69.848 5.365 70.095 5.378 A 2.6 2.6 0 0 0 70.166 5.381 Z M 1.982 11.006 L 1.846 11.572 A 4.296 4.296 0 0 0 1.974 11.675 Q 2.156 11.814 2.258 11.853 A 0.355 0.355 0 0 0 2.266 11.855 L 2.412 11.289 Q 2.131 11.057 1.985 11.007 A 0.369 0.369 0 0 0 1.982 11.006 Z M 69.746 7.764 L 69.463 7.48 L 69.463 8.457 L 69.746 7.764 Z M 2.412 9.873 L 1.699 9.59 L 1.699 10.156 L 2.412 9.873 Z M 75.654 8.75 L 75.371 8.604 L 75.225 9.307 L 75.508 9.453 L 75.654 8.75 Z M 8.086 3.35 L 8.652 4.199 Q 8.574 3.691 8.086 3.35 Z M 56.211 2.783 A 1.819 1.819 0 0 0 56.777 3.633 A 1.756 1.756 0 0 0 56.211 2.783 Z M 63.594 10.859 L 63.447 10.586 A 1.784 1.784 0 0 0 62.914 10.858 A 2.203 2.203 0 0 0 62.734 11.006 L 63.594 10.859 Z M 1.699 4.766 A 1.726 1.726 0 0 0 2.076 5.041 A 1.386 1.386 0 0 0 2.559 5.195 A 1.66 1.66 0 0 0 1.932 4.828 A 2.094 2.094 0 0 0 1.699 4.766 Z M 8.652 8.164 L 9.219 7.891 A 0.685 0.685 0 0 0 9.121 7.648 A 0.631 0.631 0 0 0 8.926 7.461 A 0.994 0.994 0 0 0 8.652 8.164 Z M 22.5 6.045 L 21.65 5.625 A 2.415 2.415 0 0 0 22.5 6.045 Z M 48.154 11.709 L 48.008 11.572 L 47.881 12.256 L 48.154 12.402 L 48.154 11.709 Z M 14.619 3.516 A 1.281 1.281 0 0 0 15.005 3.906 A 1.797 1.797 0 0 0 15.322 4.072 A 0.953 0.953 0 0 0 14.91 3.637 A 1.445 1.445 0 0 0 14.619 3.516 Z M 83.115 2.393 L 82.842 3.242 Q 83.115 2.93 83.115 2.393 Z M 21.65 7.588 A 1.204 1.204 0 0 0 21.858 8.05 A 1.672 1.672 0 0 0 22.07 8.291 A 0.983 0.983 0 0 0 21.834 7.766 A 1.402 1.402 0 0 0 21.65 7.588 Z M 3.408 2.637 L 2.979 2.5 L 2.979 3.066 L 3.408 2.637 Z M 22.07 4.492 L 21.797 4.492 L 21.65 4.922 L 21.934 4.922 L 22.07 4.492 Z M 27.9 3.545 L 27.471 2.969 Q 27.588 3.311 27.9 3.545 Z M 83.271 5.508 L 82.979 5.508 L 83.115 6.064 L 83.271 5.508 Z M 60.469 6.475 A 1.033 1.033 0 0 0 60.776 6.936 A 1.344 1.344 0 0 0 60.898 7.031 A 0.746 0.746 0 0 0 60.745 6.721 Q 60.669 6.627 60.56 6.541 A 1.57 1.57 0 0 0 60.469 6.475 Z M 9.355 8.877 L 8.926 8.877 Q 8.936 9.17 9.219 9.307 L 9.355 8.877 Z M 2.266 2.637 L 1.846 2.5 L 1.846 2.93 L 2.266 2.637 Z M 80.303 8.604 L 80.156 8.887 L 80.449 9.023 L 80.586 8.604 L 80.303 8.604 Z M 28.037 3.975 L 27.9 3.975 L 27.764 4.404 L 28.037 4.404 L 28.037 3.975 Z M 56.777 4.766 L 56.211 4.482 Q 56.416 4.746 56.777 4.766 Z M 31.182 6.406 L 30.615 6.113 A 0.971 0.971 0 0 0 31.003 6.358 A 1.279 1.279 0 0 0 31.182 6.406 Z M 21.934 2.666 L 21.797 2.666 L 21.65 3.086 L 21.934 3.086 L 21.934 2.666 Z M 17.295 11.387 L 16.729 11.104 A 0.939 0.939 0 0 0 17.263 11.382 A 1.17 1.17 0 0 0 17.295 11.387 Z M 22.07 1.963 L 21.514 1.68 A 0.787 0.787 0 0 0 22.06 1.962 A 0.997 0.997 0 0 0 22.07 1.963 Z M 32.041 3.828 L 31.904 4.111 L 32.178 4.258 L 32.324 3.975 L 32.041 3.828 Z M 20.107 11.104 A 0.665 0.665 0 0 0 20.475 11.502 A 0.864 0.864 0 0 0 20.527 11.523 A 0.659 0.659 0 0 0 20.246 11.176 A 0.954 0.954 0 0 0 20.107 11.104 Z M 1.846 3.203 L 1.563 3.203 L 1.699 3.633 L 1.846 3.203 Z M 62.168 8.594 Q 62.285 8.857 62.598 8.877 A 0.517 0.517 0 0 0 62.415 8.693 Q 62.312 8.63 62.168 8.594 Z M 76.777 3.672 A 0.468 0.468 0 0 0 76.838 3.895 Q 76.909 4.016 77.061 4.092 A 0.643 0.643 0 0 0 76.986 3.879 A 0.561 0.561 0 0 0 76.777 3.672 Z M 70.029 2.305 L 69.746 1.875 A 0.629 0.629 0 0 0 70.015 2.295 A 0.78 0.78 0 0 0 70.029 2.305 Z M 76.357 4.229 L 75.928 3.945 A 0.571 0.571 0 0 0 76.133 4.14 Q 76.23 4.196 76.357 4.229 Z M 45.391 1.904 L 45.664 2.324 Q 45.615 2.051 45.391 1.904 Z M 56.777 6.182 L 56.641 6.182 L 56.777 6.611 L 56.777 6.182 Z M 69.883 6.914 L 69.746 6.914 L 69.883 7.344 L 69.883 6.914 Z M 49.531 7.295 L 49.951 7.568 A 0.517 0.517 0 0 0 49.778 7.396 Q 49.707 7.352 49.617 7.321 A 1.099 1.099 0 0 0 49.531 7.295 Z M 21.23 8.711 L 21.094 8.994 L 21.367 8.994 L 21.367 8.711 L 21.23 8.711 Z M 82.695 4.795 L 82.559 4.795 L 82.695 5.215 L 82.695 4.795 Z M 2.467 8.7 A 0.797 0.797 0 0 0 2.559 8.74 A 0.322 0.322 0 0 0 2.5 8.638 Q 2.435 8.56 2.311 8.484 A 1.381 1.381 0 0 0 2.266 8.457 Q 2.289 8.608 2.467 8.7 Z M 63.73 2.354 A 0.396 0.396 0 0 0 63.796 2.46 Q 63.872 2.55 64.014 2.637 Q 63.989 2.48 63.805 2.387 A 0.779 0.779 0 0 0 63.73 2.354 Z M 77.263 3.352 A 0.805 0.805 0 0 0 77.334 3.389 Q 77.308 3.227 77.12 3.132 A 0.758 0.758 0 0 0 77.061 3.105 Q 77.093 3.253 77.263 3.352 Z M 2.412 2.07 L 2.559 2.354 L 2.559 2.07 L 2.412 2.07 Z M 32.324 4.834 L 32.471 5.117 L 32.471 4.834 L 32.324 4.834 Z M 58.477 7.178 L 58.623 7.461 L 58.623 7.178 L 58.477 7.178 Z M 44.844 6.318 L 44.98 6.602 L 44.98 6.318 L 44.844 6.318 Z M 77.061 4.648 L 77.197 4.932 L 77.197 4.648 L 77.061 4.648 Z M 50.361 8.398 L 50.508 8.672 L 50.508 8.398 L 50.361 8.398 Z" vector-effect="non-scaling-stroke"/></g></svg>
