<svg width="49pt" height="6pt" viewBox="0 0 49 6" xmlns="http://www.w3.org/2000/svg"><g id="fontsvg1673791095554" stroke-linecap="round" fill-rule="evenodd" fill="#ffffff"><path d="M 5.102 0.09 L 5.785 0.145 L 6.41 0.09 L 6.867 0.375 L 7.266 2.25 L 7.32 2.879 L 7.434 3.219 L 7.32 3.391 L 7.266 3.563 L 7.32 3.617 A 0.412 0.412 0 0 0 7.551 3.504 L 7.719 2.938 L 7.777 2.48 L 7.719 2.309 L 7.836 1.684 Q 7.875 1.414 8.004 1.113 L 8.176 0.488 L 8.574 0.203 L 9.199 0.145 L 9.824 0.203 A 1.079 1.079 0 0 1 10.153 0.377 A 1.364 1.364 0 0 1 10.281 0.488 L 10.227 1.172 L 10.281 1.625 L 10.168 1.738 L 10.227 3.961 L 10.281 4.414 L 10.227 4.586 L 10.281 4.984 L 10.227 5.098 A 2.098 2.098 0 0 1 9.996 5.245 Q 9.866 5.317 9.711 5.383 L 9.145 5.324 L 8.801 4.926 L 8.973 3.277 Q 8.918 2.652 8.973 2.309 L 9.027 1.855 L 8.742 1.797 L 8.801 2.082 A 2.325 2.325 0 0 1 8.743 2.451 A 2.829 2.829 0 0 1 8.688 2.652 L 8.348 4.531 A 1.806 1.806 0 0 1 8.261 4.938 A 2.251 2.251 0 0 1 8.176 5.156 L 7.664 5.383 Q 7.402 5.332 7.094 5.211 A 1.351 1.351 0 0 1 6.817 4.875 A 1.624 1.624 0 0 1 6.754 4.758 L 6.695 4.129 L 6.523 3.504 L 6.469 2.938 A 1.505 1.505 0 0 1 6.356 2.478 A 1.722 1.722 0 0 1 6.352 2.422 L 6.184 1.855 L 6.184 1.57 A 0.3 0.3 0 0 0 6.126 1.616 A 0.194 0.194 0 0 0 6.07 1.738 L 6.184 2.82 L 6.125 2.992 L 6.184 3.391 L 6.125 3.504 L 6.184 4.188 L 6.352 4.813 L 6.07 5.266 L 5.387 5.324 A 2.872 2.872 0 0 1 5.151 5.244 Q 4.992 5.183 4.816 5.098 L 4.758 4.414 L 4.816 3.844 L 4.758 3.676 A 1.841 1.841 0 0 0 4.792 3.498 Q 4.805 3.406 4.812 3.302 A 3.447 3.447 0 0 0 4.816 3.219 L 4.758 1.453 L 4.703 1.398 L 4.758 1.113 L 4.703 0.656 L 4.758 0.488 A 2.303 2.303 0 0 1 4.992 0.199 A 2.728 2.728 0 0 1 5.102 0.09 Z M 17.242 0.313 L 18.086 0.031 L 18.93 0.09 L 19.883 0.484 L 20.5 1.043 A 1.507 1.507 0 0 1 20.661 1.323 A 1.863 1.863 0 0 1 20.727 1.492 L 20.5 1.719 L 19.715 2.055 L 19.039 1.605 L 18.59 1.492 L 18.086 1.547 A 2.66 2.66 0 0 0 17.637 2.08 A 3.019 3.019 0 0 0 17.582 2.168 L 17.469 2.727 L 17.523 2.895 L 17.523 3.063 A 1.007 1.007 0 0 0 17.654 3.52 A 1.403 1.403 0 0 0 17.805 3.738 A 4.212 4.212 0 0 0 18.285 3.888 A 5.298 5.298 0 0 0 18.648 3.965 A 4.365 4.365 0 0 0 19.028 3.78 A 5.77 5.77 0 0 0 19.379 3.57 A 2.58 2.58 0 0 1 18.982 3.53 Q 18.788 3.496 18.576 3.433 A 4.594 4.594 0 0 1 18.477 3.402 A 2.364 2.364 0 0 1 18.384 3.178 A 3.172 3.172 0 0 1 18.313 2.953 L 18.367 2.449 L 18.59 2.168 L 19.992 2.281 L 20.387 2.223 L 20.555 2.281 L 20.727 2.617 L 20.613 4.359 L 20.668 5.141 L 20.5 5.199 L 20.387 5.313 A 4.203 4.203 0 0 1 19.8 5.184 A 4.788 4.788 0 0 1 19.66 5.141 L 19.379 4.918 A 0.879 0.879 0 0 1 19.212 5.088 A 1.197 1.197 0 0 1 19.039 5.199 Q 18.637 5.328 18.199 5.367 Q 17.789 5.342 17.308 5.165 A 4.613 4.613 0 0 1 17.242 5.141 L 16.629 4.691 L 16.121 4.02 L 15.953 3.176 A 5.102 5.102 0 0 1 16.121 2.336 L 16.008 1.887 L 16.121 1.438 L 16.629 0.82 L 17.242 0.313 Z M 40.18 0.313 L 41.023 0.031 L 41.867 0.09 L 42.82 0.484 L 43.438 1.043 A 1.507 1.507 0 0 1 43.599 1.323 A 1.863 1.863 0 0 1 43.664 1.492 L 43.438 1.719 L 42.652 2.055 L 41.977 1.605 L 41.527 1.492 L 41.023 1.547 A 2.66 2.66 0 0 0 40.574 2.08 A 3.019 3.019 0 0 0 40.52 2.168 L 40.406 2.727 L 40.461 2.895 L 40.461 3.063 A 1.007 1.007 0 0 0 40.592 3.52 A 1.403 1.403 0 0 0 40.742 3.738 A 4.212 4.212 0 0 0 41.222 3.888 A 5.298 5.298 0 0 0 41.586 3.965 A 4.365 4.365 0 0 0 41.965 3.78 A 5.77 5.77 0 0 0 42.316 3.57 A 2.58 2.58 0 0 1 41.92 3.53 Q 41.725 3.496 41.513 3.433 A 4.594 4.594 0 0 1 41.414 3.402 A 2.364 2.364 0 0 1 41.321 3.178 A 3.172 3.172 0 0 1 41.25 2.953 L 41.305 2.449 L 41.527 2.168 L 42.93 2.281 L 43.324 2.223 L 43.492 2.281 L 43.664 2.617 L 43.551 4.359 L 43.605 5.141 L 43.438 5.199 L 43.324 5.313 A 4.203 4.203 0 0 1 42.738 5.184 A 4.788 4.788 0 0 1 42.598 5.141 L 42.316 4.918 A 0.879 0.879 0 0 1 42.149 5.088 A 1.197 1.197 0 0 1 41.977 5.199 Q 41.574 5.328 41.137 5.367 Q 40.727 5.342 40.245 5.165 A 4.613 4.613 0 0 1 40.18 5.141 L 39.566 4.691 L 39.059 4.02 L 38.891 3.176 A 5.102 5.102 0 0 1 39.059 2.336 L 38.945 1.887 L 39.059 1.438 L 39.566 0.82 L 40.18 0.313 Z M 47.402 0.25 L 48.191 0.027 Q 48.625 0.063 48.871 0.477 L 48.813 0.871 L 48.871 1.043 L 48.813 4.426 L 48.871 4.934 L 48.59 5.215 L 47.965 5.27 L 47.742 5.215 A 1.087 1.087 0 0 1 47.185 4.944 A 1.439 1.439 0 0 1 47.062 4.82 L 45.992 2.676 A 1.207 1.207 0 0 0 45.77 2.402 A 1.655 1.655 0 0 0 45.543 2.227 L 45.824 2.957 L 45.992 4.82 A 0.874 0.874 0 0 1 45.528 5.289 A 1.206 1.206 0 0 1 45.43 5.328 L 44.98 5.383 L 44.809 5.328 L 44.582 5.215 L 44.414 4.82 Q 44.448 4.656 44.464 4.442 A 4.617 4.617 0 0 0 44.469 4.371 L 44.414 3.297 L 44.469 2.844 L 44.414 2.734 L 44.414 1.324 A 5.687 5.687 0 0 0 44.359 0.805 A 6.811 6.811 0 0 0 44.301 0.477 A 0.977 0.977 0 0 1 44.843 0.119 A 1.373 1.373 0 0 1 45.035 0.082 L 45.992 0.141 L 47.121 2.227 Q 47.246 2.582 47.629 2.789 L 47.402 2.113 L 47.234 0.59 A 0.877 0.877 0 0 1 47.306 0.405 A 1.201 1.201 0 0 1 47.402 0.25 Z M 0.398 0.047 L 1.305 0.16 L 2.211 0.102 L 2.945 0.16 L 3.516 0.047 L 3.684 0.16 A 3.728 3.728 0 0 1 3.821 0.731 A 4.371 4.371 0 0 1 3.852 0.953 A 0.66 0.66 0 0 1 3.649 1.322 A 1.024 1.024 0 0 1 3.457 1.465 L 1.699 1.41 L 1.477 1.578 L 1.645 2.031 L 2.492 1.918 L 2.723 1.973 L 3.344 1.918 A 0.587 0.587 0 0 1 3.731 2.221 A 0.94 0.94 0 0 1 3.797 2.371 A 2.057 2.057 0 0 1 3.702 2.835 A 2.674 2.674 0 0 1 3.57 3.164 L 2.777 3.223 L 1.871 3.164 A 0.664 0.664 0 0 0 1.532 3.41 A 1.03 1.03 0 0 0 1.414 3.617 A 1.443 1.443 0 0 0 1.817 3.877 A 1.828 1.828 0 0 0 2.039 3.957 A 3.167 3.167 0 0 1 2.433 3.882 Q 2.634 3.857 2.861 3.85 A 5.397 5.397 0 0 1 2.945 3.848 L 3.516 3.848 L 3.629 3.789 L 3.684 3.848 L 3.852 3.848 A 0.761 0.761 0 0 1 4.053 4.217 A 1.129 1.129 0 0 1 4.082 4.469 L 4.082 4.98 L 3.852 5.262 L 1.93 5.207 L 1.758 5.316 L 1.246 5.262 A 1.754 1.754 0 0 0 0.831 5.368 A 2.1 2.1 0 0 0 0.68 5.434 A 2.714 2.714 0 0 1 0.309 5.223 A 3.446 3.446 0 0 1 0.055 5.035 L 0.055 3.051 L 0 2.824 L 0.113 2.258 L 0 1.691 L 0.113 1.52 L 0.055 1.066 L 0.113 0.953 L 0.113 0.613 Q 0.191 0.328 0.398 0.047 Z M 27.27 0.047 L 28.176 0.16 L 29.082 0.102 L 29.816 0.16 L 30.387 0.047 L 30.555 0.16 A 3.728 3.728 0 0 1 30.693 0.731 A 4.371 4.371 0 0 1 30.723 0.953 A 0.66 0.66 0 0 1 30.52 1.322 A 1.024 1.024 0 0 1 30.328 1.465 L 28.57 1.41 L 28.348 1.578 L 28.516 2.031 L 29.363 1.918 L 29.594 1.973 L 30.215 1.918 A 0.587 0.587 0 0 1 30.602 2.221 A 0.94 0.94 0 0 1 30.668 2.371 A 2.057 2.057 0 0 1 30.573 2.835 A 2.674 2.674 0 0 1 30.441 3.164 L 29.648 3.223 L 28.742 3.164 A 0.664 0.664 0 0 0 28.403 3.41 A 1.03 1.03 0 0 0 28.285 3.617 A 1.443 1.443 0 0 0 28.688 3.877 A 1.828 1.828 0 0 0 28.91 3.957 A 3.167 3.167 0 0 1 29.304 3.882 Q 29.505 3.857 29.732 3.85 A 5.397 5.397 0 0 1 29.816 3.848 L 30.387 3.848 L 30.5 3.789 L 30.555 3.848 L 30.723 3.848 A 0.761 0.761 0 0 1 30.924 4.217 A 1.129 1.129 0 0 1 30.953 4.469 L 30.953 4.98 L 30.723 5.262 L 28.801 5.207 L 28.629 5.316 L 28.117 5.262 A 1.754 1.754 0 0 0 27.702 5.368 A 2.1 2.1 0 0 0 27.551 5.434 A 2.714 2.714 0 0 1 27.18 5.223 A 3.446 3.446 0 0 1 26.926 5.035 L 26.926 3.051 L 26.871 2.824 L 26.984 2.258 L 26.871 1.691 L 26.984 1.52 L 26.926 1.066 L 26.984 0.953 L 26.984 0.613 Q 27.063 0.328 27.27 0.047 Z M 11.883 0.402 L 12.602 0.07 L 13.207 0.125 L 13.43 0.07 L 13.594 0.07 L 14.918 0.73 L 15.199 0.953 L 15.086 1.395 A 4.051 4.051 0 0 1 14.522 1.862 A 4.486 4.486 0 0 1 14.48 1.891 A 2.768 2.768 0 0 1 13.862 1.733 A 3.214 3.214 0 0 1 13.703 1.668 A 3.291 3.291 0 0 0 13.272 1.551 A 4.054 4.054 0 0 0 12.988 1.504 A 0.552 0.552 0 0 0 12.82 1.548 Q 12.653 1.624 12.614 1.819 A 0.664 0.664 0 0 0 12.602 1.949 L 13.539 2.059 L 14.371 2.277 A 2.322 2.322 0 0 1 14.703 2.487 A 3.106 3.106 0 0 1 14.977 2.719 A 3.116 3.116 0 0 1 15.301 3.413 A 3.437 3.437 0 0 1 15.309 3.438 L 15.086 4.324 L 14.645 4.93 L 13.98 5.313 L 13.207 5.426 L 13.098 5.371 L 12.711 5.426 L 12.543 5.313 L 12.379 5.371 L 12.215 5.371 A 3.734 3.734 0 0 1 11.737 5.221 A 4.57 4.57 0 0 1 11.441 5.094 L 10.887 4.598 Q 10.785 4.418 10.723 4.156 L 10.996 3.934 L 11.66 3.547 A 2.352 2.352 0 0 1 12.117 3.713 A 2.84 2.84 0 0 1 12.324 3.824 A 3.577 3.577 0 0 0 12.767 3.965 A 4.613 4.613 0 0 0 13.152 4.043 A 2.238 2.238 0 0 0 13.689 3.826 A 2.682 2.682 0 0 0 13.871 3.715 Q 13.543 3.539 13.098 3.438 L 12.379 3.328 L 12.215 3.383 L 11.551 3.105 L 11.109 2.496 L 10.996 1.617 A 4.218 4.218 0 0 1 11.218 1.102 A 4.948 4.948 0 0 1 11.328 0.898 L 11.883 0.402 Z M 32.566 0.402 L 33.285 0.07 L 33.891 0.125 L 34.113 0.07 L 34.277 0.07 L 35.602 0.73 L 35.883 0.953 L 35.77 1.395 A 4.051 4.051 0 0 1 35.206 1.862 A 4.486 4.486 0 0 1 35.164 1.891 A 2.768 2.768 0 0 1 34.545 1.733 A 3.214 3.214 0 0 1 34.387 1.668 A 3.291 3.291 0 0 0 33.956 1.551 A 4.054 4.054 0 0 0 33.672 1.504 A 0.552 0.552 0 0 0 33.503 1.548 Q 33.336 1.624 33.297 1.819 A 0.664 0.664 0 0 0 33.285 1.949 L 34.223 2.059 L 35.055 2.277 A 2.322 2.322 0 0 1 35.387 2.487 A 3.106 3.106 0 0 1 35.66 2.719 A 3.116 3.116 0 0 1 35.984 3.413 A 3.437 3.437 0 0 1 35.992 3.438 L 35.77 4.324 L 35.328 4.93 L 34.664 5.313 L 33.891 5.426 L 33.781 5.371 L 33.395 5.426 L 33.227 5.313 L 33.063 5.371 L 32.898 5.371 A 3.734 3.734 0 0 1 32.421 5.221 A 4.57 4.57 0 0 1 32.125 5.094 L 31.57 4.598 Q 31.469 4.418 31.406 4.156 L 31.68 3.934 L 32.344 3.547 A 2.352 2.352 0 0 1 32.8 3.713 A 2.84 2.84 0 0 1 33.008 3.824 A 3.577 3.577 0 0 0 33.451 3.965 A 4.613 4.613 0 0 0 33.836 4.043 A 2.238 2.238 0 0 0 34.372 3.826 A 2.682 2.682 0 0 0 34.555 3.715 Q 34.227 3.539 33.781 3.438 L 33.063 3.328 L 32.898 3.383 L 32.234 3.105 L 31.793 2.496 L 31.68 1.617 A 4.218 4.218 0 0 1 31.902 1.102 A 4.948 4.948 0 0 1 32.012 0.898 L 32.566 0.402 Z M 21.734 0 L 24.285 0.055 L 25.215 0.461 L 25.852 1.156 A 2.756 2.756 0 0 1 26.055 1.731 A 3.732 3.732 0 0 1 26.141 2.258 L 26.082 2.547 L 26.199 2.781 L 26.082 3.301 A 5.116 5.116 0 0 1 25.922 3.827 A 6.721 6.721 0 0 1 25.734 4.289 A 1.786 1.786 0 0 1 25.121 4.88 A 2.13 2.13 0 0 1 25.039 4.926 A 3.807 3.807 0 0 1 24.451 5.156 A 4.849 4.849 0 0 1 23.996 5.27 L 23.066 5.328 L 22.664 5.445 L 22.023 5.391 L 21.852 5.328 A 1.208 1.208 0 0 1 21.516 4.613 A 1.609 1.609 0 0 1 21.504 4.461 L 21.563 3.648 L 21.563 3.477 L 21.445 3.125 L 21.504 2.609 L 21.445 2.141 L 21.504 1.563 L 21.445 0.922 A 2.292 2.292 0 0 1 21.584 0.335 A 2.921 2.921 0 0 1 21.734 0 Z M 36.801 0.273 L 37.527 0.047 L 38.258 0.328 L 38.199 1.113 L 38.145 1.281 L 38.258 1.73 L 38.199 1.898 L 38.199 2.625 L 38.258 2.625 L 38.199 2.68 L 38.145 3.188 L 38.199 3.352 L 38.199 3.578 L 38.258 4.023 L 38.199 4.137 L 38.199 4.305 L 38.258 4.922 L 38.199 5.145 Q 37.883 5.293 37.473 5.367 Q 37.102 5.273 36.742 5.09 L 36.742 4.473 L 36.688 4.473 L 36.742 4.25 L 36.801 3.578 L 36.742 2.793 L 36.801 1.953 A 5.143 5.143 0 0 1 36.758 1.546 Q 36.742 1.316 36.742 1.059 L 36.688 0.441 L 36.801 0.273 Z M 23.938 1.563 L 23.066 1.391 L 23.066 3.938 L 23.418 3.883 L 23.996 3.883 L 24.285 3.648 A 2.926 2.926 0 0 0 24.515 3.185 A 3.43 3.43 0 0 0 24.578 3.012 L 24.516 2.086 A 2.191 2.191 0 0 0 24.054 1.641 A 2.554 2.554 0 0 0 23.937 1.563 Z M 48.191 3.75 L 48.023 3.637 L 47.965 4.141 L 47.855 4.484 A 0.101 0.101 0 0 0 47.903 4.566 Q 47.927 4.583 47.965 4.594 A 0.962 0.962 0 0 0 48.051 4.345 Q 48.074 4.234 48.078 4.108 A 1.627 1.627 0 0 0 48.078 4.086 L 48.191 3.75 Z M 22.375 1.969 L 22.488 1.68 Q 22.445 1.32 22.141 1.215 Q 22.199 1.594 22.375 1.969 Z M 45.371 1.492 L 45.09 1.043 L 44.98 1.438 L 44.98 1.605 L 45.371 1.492 Z M 17.523 4.414 L 17.133 4.188 A 2.705 2.705 0 0 0 17.323 4.539 A 3.315 3.315 0 0 0 17.469 4.75 L 17.523 4.414 Z M 40.461 4.414 L 40.07 4.188 A 2.705 2.705 0 0 0 40.26 4.539 A 3.315 3.315 0 0 0 40.406 4.75 L 40.461 4.414 Z M 0.906 4.07 A 0.646 0.646 0 0 0 0.962 4.332 Q 1.033 4.483 1.19 4.581 A 0.857 0.857 0 0 0 1.305 4.641 A 1.192 1.192 0 0 0 1.025 4.182 A 1.504 1.504 0 0 0 0.906 4.07 Z M 27.777 4.07 A 0.646 0.646 0 0 0 27.834 4.332 Q 27.904 4.483 28.061 4.581 A 0.857 0.857 0 0 0 28.176 4.641 A 1.192 1.192 0 0 0 27.897 4.182 A 1.504 1.504 0 0 0 27.777 4.07 Z M 9.086 0.887 L 8.859 0.887 L 8.633 1.059 L 8.742 1.285 A 0.115 0.115 0 0 0 8.821 1.242 Q 8.836 1.224 8.848 1.199 A 0.31 0.31 0 0 0 8.859 1.172 L 9.086 0.887 Z M 47.574 4.199 L 47.461 3.691 L 47.234 3.918 A 1.727 1.727 0 0 1 47.426 4.061 A 2.218 2.218 0 0 1 47.574 4.199 Z M 5.785 1.512 L 5.613 1.172 L 5.445 1.57 Q 5.492 1.648 5.613 1.684 L 5.785 1.512 Z M 22.199 4.344 Q 22.289 4.664 22.664 4.691 A 3.089 3.089 0 0 0 22.419 4.493 A 3.92 3.92 0 0 0 22.199 4.344 Z M 37.414 4.137 L 37.359 4.473 L 37.414 4.586 L 37.527 4.699 A 1.547 1.547 0 0 0 37.479 4.344 A 1.956 1.956 0 0 0 37.414 4.137 Z M 19.938 3.234 L 19.602 3.402 A 0.674 0.674 0 0 0 19.694 3.586 A 0.874 0.874 0 0 0 19.773 3.684 A 0.591 0.591 0 0 0 19.914 3.418 A 0.86 0.86 0 0 0 19.938 3.234 Z M 42.875 3.234 L 42.539 3.402 A 0.674 0.674 0 0 0 42.631 3.586 A 0.874 0.874 0 0 0 42.711 3.684 A 0.591 0.591 0 0 0 42.851 3.418 A 0.86 0.86 0 0 0 42.875 3.234 Z M 22.199 3.594 L 22.082 3.938 L 22.375 4.055 Q 22.355 3.813 22.199 3.594 Z M 25.098 3.594 L 24.863 3.938 A 0.275 0.275 0 0 0 24.89 4.02 A 0.221 0.221 0 0 0 24.98 4.113 A 1.043 1.043 0 0 0 25.086 3.77 A 1.324 1.324 0 0 0 25.098 3.594 Z M 22.488 0.922 L 22.258 0.75 L 22.141 1.156 A 0.126 0.126 0 0 0 22.221 1.109 Q 22.237 1.09 22.249 1.064 A 0.31 0.31 0 0 0 22.258 1.043 L 22.488 0.922 Z M 47.797 3.016 L 47.629 3.355 L 47.797 3.469 L 47.91 3.125 A 0.115 0.115 0 0 0 47.866 3.052 Q 47.849 3.038 47.824 3.027 A 0.301 0.301 0 0 0 47.797 3.016 Z M 0.625 1.918 L 0.566 2.031 L 0.625 2.316 L 0.68 2.426 L 0.738 2.031 A 0.119 0.119 0 0 0 0.697 1.959 Q 0.679 1.944 0.655 1.931 A 0.311 0.311 0 0 0 0.625 1.918 Z M 27.496 1.918 L 27.438 2.031 L 27.496 2.316 L 27.551 2.426 L 27.609 2.031 A 0.119 0.119 0 0 0 27.568 1.959 Q 27.551 1.944 27.526 1.931 A 0.311 0.311 0 0 0 27.496 1.918 Z M 25.156 1.797 L 25.039 1.328 L 24.922 1.621 L 25.156 1.797 Z M 46.051 1.828 A 1.256 1.256 0 0 0 46.241 2.174 A 1.527 1.527 0 0 0 46.332 2.281 A 0.864 0.864 0 0 0 46.198 1.998 A 1.194 1.194 0 0 0 46.051 1.828 Z M 16.629 1.828 Q 16.727 2.059 16.906 2.281 A 0.661 0.661 0 0 0 16.78 1.987 A 0.967 0.967 0 0 0 16.629 1.828 Z M 39.566 1.828 Q 39.664 2.059 39.844 2.281 A 0.661 0.661 0 0 0 39.717 1.987 A 0.967 0.967 0 0 0 39.566 1.828 Z M 45.203 4.086 L 45.035 4.371 L 45.203 4.484 L 45.371 4.371 A 0.714 0.714 0 0 0 45.262 4.158 A 0.881 0.881 0 0 0 45.203 4.086 Z M 45.543 0.758 L 45.262 0.926 L 45.652 1.043 A 0.925 0.925 0 0 0 45.642 0.951 Q 45.616 0.801 45.543 0.758 Z M 11.938 1.285 A 2.104 2.104 0 0 0 12.133 1.618 A 2.45 2.45 0 0 0 12.215 1.727 A 1.007 1.007 0 0 0 12.052 1.416 A 1.284 1.284 0 0 0 11.937 1.285 Z M 32.621 1.285 A 2.104 2.104 0 0 0 32.817 1.618 A 2.45 2.45 0 0 0 32.898 1.727 A 1.007 1.007 0 0 0 32.735 1.416 A 1.284 1.284 0 0 0 32.621 1.285 Z M 17.188 3.289 L 17.02 3.176 L 16.852 3.516 L 16.961 3.516 L 16.961 3.457 L 17.188 3.289 Z M 40.125 3.289 L 39.957 3.176 L 39.789 3.516 L 39.898 3.516 L 39.898 3.457 L 40.125 3.289 Z M 13.371 2.555 A 1.042 1.042 0 0 0 13.584 2.84 A 1.309 1.309 0 0 0 13.703 2.941 A 1.138 1.138 0 0 0 13.498 2.666 A 1.428 1.428 0 0 0 13.371 2.555 Z M 34.055 2.555 A 1.042 1.042 0 0 0 34.267 2.84 A 1.309 1.309 0 0 0 34.387 2.941 A 1.138 1.138 0 0 0 34.181 2.666 A 1.428 1.428 0 0 0 34.055 2.555 Z M 22.082 2.664 A 0.795 0.795 0 0 0 22.28 2.986 A 1.022 1.022 0 0 0 22.375 3.07 A 1.159 1.159 0 0 0 22.219 2.814 A 1.505 1.505 0 0 0 22.082 2.664 Z M 12.602 2.387 L 12.543 2.719 L 12.824 2.664 A 0.47 0.47 0 0 0 12.602 2.387 Z M 33.285 2.387 L 33.227 2.719 L 33.508 2.664 A 0.47 0.47 0 0 0 33.285 2.387 Z M 5.613 4.497 A 1.169 1.169 0 0 0 5.672 4.531 Q 5.547 4.344 5.328 4.188 Q 5.404 4.366 5.613 4.497 Z M 37.641 2.121 L 37.191 1.953 Q 37.344 2.105 37.612 2.12 A 1.039 1.039 0 0 0 37.641 2.121 Z M 1.645 2.711 L 1.477 2.539 L 1.305 2.77 L 1.645 2.711 Z M 28.516 2.711 L 28.348 2.539 L 28.176 2.77 L 28.516 2.711 Z M 37.473 3.074 L 37.359 2.961 L 37.359 3.352 L 37.473 3.074 Z M 0.566 3.051 A 0.679 0.679 0 0 0 0.704 3.304 A 0.884 0.884 0 0 0 0.793 3.395 A 0.61 0.61 0 0 0 0.566 3.051 Z M 27.437 3.051 A 0.679 0.679 0 0 0 27.576 3.304 A 0.884 0.884 0 0 0 27.664 3.395 A 0.61 0.61 0 0 0 27.438 3.051 Z M 45.262 3.469 L 45.148 3.41 L 45.09 3.691 L 45.203 3.75 L 45.262 3.469 Z M 19.211 4.188 A 0.548 0.548 0 0 0 19.381 4.479 A 0.717 0.717 0 0 0 19.434 4.523 Q 19.379 4.34 19.211 4.188 Z M 42.148 4.188 A 0.548 0.548 0 0 0 42.318 4.479 A 0.717 0.717 0 0 0 42.371 4.523 Q 42.316 4.34 42.148 4.188 Z M 7.605 3.902 A 0.568 0.568 0 0 0 7.761 4.23 A 0.71 0.71 0 0 0 7.777 4.246 Q 7.727 4.055 7.605 3.902 Z M 13.43 4.652 L 13.371 4.598 L 13.32 4.871 L 13.43 4.93 L 13.43 4.652 Z M 34.113 4.652 L 34.055 4.598 L 34.004 4.871 L 34.113 4.93 L 34.113 4.652 Z M 5.613 2.879 L 5.445 2.82 L 5.387 3.047 L 5.555 3.047 L 5.613 2.879 Z M 23.996 0.75 A 0.721 0.721 0 0 0 24.186 0.928 A 0.912 0.912 0 0 0 24.285 0.984 A 0.601 0.601 0 0 0 24.117 0.816 A 0.803 0.803 0 0 0 23.996 0.75 Z M 9.484 1.512 A 0.562 0.562 0 0 0 9.703 1.792 A 0.693 0.693 0 0 0 9.711 1.797 A 0.42 0.42 0 0 0 9.508 1.525 A 0.536 0.536 0 0 0 9.484 1.512 Z M 2.27 4.301 L 2.211 4.582 L 2.383 4.527 A 0.313 0.313 0 0 0 2.333 4.379 A 0.455 0.455 0 0 0 2.27 4.301 Z M 29.141 4.301 L 29.082 4.582 L 29.254 4.527 A 0.313 0.313 0 0 0 29.204 4.379 A 0.455 0.455 0 0 0 29.141 4.301 Z M 48.246 0.926 L 48.137 1.266 A 0.421 0.421 0 0 0 48.226 1.094 Q 48.246 1.018 48.246 0.926 Z M 7.266 4.359 A 0.535 0.535 0 0 0 7.45 4.495 A 0.705 0.705 0 0 0 7.551 4.531 A 0.607 0.607 0 0 0 7.266 4.359 Z M 5.555 3.391 A 0.344 0.344 0 0 0 5.663 3.543 Q 5.708 3.579 5.767 3.608 A 0.682 0.682 0 0 0 5.785 3.617 Q 5.743 3.469 5.565 3.395 A 0.632 0.632 0 0 0 5.555 3.391 Z M 23.359 4.52 L 23.125 4.52 L 23.184 4.691 L 23.359 4.52 Z M 25.445 2.488 L 25.27 2.434 A 0.342 0.342 0 0 0 25.33 2.596 A 0.475 0.475 0 0 0 25.387 2.664 L 25.445 2.488 Z M 22.719 0.922 L 22.664 0.922 L 22.547 1.098 L 22.719 1.098 L 22.719 0.922 Z M 17.188 1.156 L 17.133 1.379 L 17.301 1.266 A 0.115 0.115 0 0 0 17.257 1.192 Q 17.239 1.178 17.215 1.167 A 0.301 0.301 0 0 0 17.188 1.156 Z M 40.125 1.156 L 40.07 1.379 L 40.238 1.266 A 0.115 0.115 0 0 0 40.194 1.192 Q 40.177 1.178 40.152 1.167 A 0.301 0.301 0 0 0 40.125 1.156 Z M 48.309 2.172 L 48.191 2.172 L 48.246 2.395 L 48.309 2.172 Z M 19.039 0.82 Q 18.93 0.898 18.871 1.043 A 0.382 0.382 0 0 0 19.039 0.82 Z M 41.977 0.82 Q 41.867 0.898 41.809 1.043 A 0.382 0.382 0 0 0 41.977 0.82 Z M 47.121 3.41 L 47.063 3.523 L 47.18 3.578 L 47.234 3.41 L 47.121 3.41 Z M 9.539 1.172 L 9.484 0.941 L 9.43 1.113 L 9.539 1.172 Z M 22.605 2.609 L 22.375 2.488 A 0.353 0.353 0 0 0 22.605 2.609 Z M 24.922 4.289 L 24.691 4.172 A 0.369 0.369 0 0 0 24.904 4.286 A 0.466 0.466 0 0 0 24.922 4.289 Z M 24.055 4.461 L 23.879 4.637 Q 24.043 4.609 24.055 4.461 Z M 25.27 1.734 L 25.445 1.91 A 0.261 0.261 0 0 0 25.303 1.749 A 0.377 0.377 0 0 0 25.27 1.734 Z M 22.547 4.113 L 22.488 4.23 L 22.605 4.289 L 22.605 4.113 L 22.547 4.113 Z M 20.051 4.133 L 19.938 4.133 L 19.992 4.301 L 20.051 4.133 Z M 42.988 4.133 L 42.875 4.133 L 42.93 4.301 L 42.988 4.133 Z M 16.742 2.504 L 16.57 2.449 Q 16.583 2.506 16.649 2.545 A 0.33 0.33 0 0 0 16.684 2.562 L 16.742 2.504 Z M 39.68 2.504 L 39.508 2.449 Q 39.52 2.506 39.587 2.545 A 0.33 0.33 0 0 0 39.621 2.562 L 39.68 2.504 Z M 24.98 3.301 L 25.098 3.477 Q 25.074 3.367 24.98 3.301 Z M 45.711 1.438 A 0.187 0.187 0 0 0 45.735 1.527 Q 45.764 1.575 45.824 1.605 A 0.257 0.257 0 0 0 45.795 1.52 A 0.225 0.225 0 0 0 45.711 1.438 Z M 9.598 4.074 L 9.43 3.961 A 0.185 0.185 0 0 0 9.471 4.026 Q 9.505 4.06 9.557 4.07 A 0.248 0.248 0 0 0 9.598 4.074 Z M 16.961 1.719 L 17.02 1.66 L 16.852 1.605 A 0.166 0.166 0 0 0 16.875 1.643 Q 16.904 1.68 16.961 1.719 Z M 39.898 1.719 L 39.957 1.66 L 39.789 1.605 A 0.166 0.166 0 0 0 39.812 1.643 Q 39.842 1.68 39.898 1.719 Z M 37.586 0.891 L 37.473 0.719 A 0.252 0.252 0 0 0 37.58 0.887 A 0.313 0.313 0 0 0 37.586 0.891 Z M 0.738 1.465 L 0.625 1.293 A 0.288 0.288 0 0 0 0.66 1.384 A 0.249 0.249 0 0 0 0.738 1.465 Z M 27.609 1.465 L 27.496 1.293 A 0.288 0.288 0 0 0 27.531 1.384 A 0.249 0.249 0 0 0 27.609 1.465 Z M 1.191 2.598 L 1.078 2.426 A 0.288 0.288 0 0 0 1.113 2.517 A 0.249 0.249 0 0 0 1.191 2.598 Z M 28.063 2.598 L 27.949 2.426 A 0.288 0.288 0 0 0 27.984 2.517 A 0.249 0.249 0 0 0 28.063 2.598 Z M 45.543 1.66 L 45.371 1.547 A 0.229 0.229 0 0 0 45.453 1.625 Q 45.492 1.647 45.543 1.66 Z M 8.742 1.684 L 8.633 1.512 A 0.274 0.274 0 0 0 8.663 1.6 A 0.238 0.238 0 0 0 8.742 1.684 Z M 19.492 3.738 L 19.66 3.852 A 0.212 0.212 0 0 0 19.583 3.775 Q 19.553 3.757 19.514 3.745 A 0.432 0.432 0 0 0 19.492 3.738 Z M 42.43 3.738 L 42.598 3.852 A 0.212 0.212 0 0 0 42.52 3.775 Q 42.49 3.757 42.452 3.745 A 0.432 0.432 0 0 0 42.43 3.738 Z M 0.625 3.789 L 0.793 3.902 A 0.212 0.212 0 0 0 0.715 3.825 Q 0.685 3.807 0.647 3.795 A 0.432 0.432 0 0 0 0.625 3.789 Z M 27.496 3.789 L 27.664 3.902 A 0.212 0.212 0 0 0 27.586 3.825 Q 27.557 3.807 27.518 3.795 A 0.432 0.432 0 0 0 27.496 3.789 Z M 12.324 0.73 L 12.434 0.898 Q 12.414 0.789 12.324 0.73 Z M 33.008 0.73 L 33.117 0.898 Q 33.098 0.789 33.008 0.73 Z M 37.527 2.734 L 37.473 2.734 L 37.527 2.906 L 37.527 2.734 Z M 13.98 2.887 L 14.148 2.996 A 0.207 0.207 0 0 0 14.079 2.927 Q 14.051 2.91 14.015 2.897 A 0.44 0.44 0 0 0 13.98 2.887 Z M 34.664 2.887 L 34.832 2.996 A 0.207 0.207 0 0 0 34.763 2.927 Q 34.735 2.91 34.698 2.897 A 0.44 0.44 0 0 0 34.664 2.887 Z M 19.715 2.895 L 19.66 2.895 L 19.715 3.063 L 19.715 2.895 Z M 17.188 3.684 L 17.133 3.684 L 17.188 3.852 L 17.188 3.684 Z M 42.652 2.895 L 42.598 2.895 L 42.652 3.063 L 42.652 2.895 Z M 40.125 3.684 L 40.07 3.684 L 40.125 3.852 L 40.125 3.684 Z M 48.078 1.887 L 48.023 1.887 L 48.078 2.055 L 48.078 1.887 Z M 24.633 1.273 A 0.148 0.148 0 0 0 24.678 1.345 Q 24.706 1.371 24.75 1.391 A 0.135 0.135 0 0 0 24.7 1.311 Q 24.68 1.295 24.653 1.282 A 0.32 0.32 0 0 0 24.633 1.273 Z M 6.63 1.394 A 0.567 0.567 0 0 0 6.637 1.398 A 0.119 0.119 0 0 0 6.595 1.326 Q 6.578 1.311 6.553 1.298 A 0.311 0.311 0 0 0 6.523 1.285 Q 6.546 1.341 6.63 1.394 Z M 45.824 1.211 A 0.133 0.133 0 0 0 45.863 1.278 Q 45.88 1.295 45.905 1.31 A 0.322 0.322 0 0 0 45.934 1.324 A 0.122 0.122 0 0 0 45.89 1.249 Q 45.873 1.234 45.848 1.222 A 0.303 0.303 0 0 0 45.824 1.211 Z M 18.648 4.578 A 0.137 0.137 0 0 0 18.709 4.667 A 0.231 0.231 0 0 0 18.758 4.691 A 0.115 0.115 0 0 0 18.739 4.655 Q 18.711 4.617 18.648 4.578 Z M 41.586 4.578 A 0.137 0.137 0 0 0 41.647 4.667 A 0.231 0.231 0 0 0 41.695 4.691 A 0.115 0.115 0 0 0 41.677 4.655 Q 41.649 4.617 41.586 4.578 Z M 0.68 0.953 L 0.738 1.066 L 0.738 0.953 L 0.68 0.953 Z M 27.551 0.953 L 27.609 1.066 L 27.609 0.953 L 27.551 0.953 Z M 5.672 0.773 L 5.727 0.887 L 5.727 0.773 L 5.672 0.773 Z M 12.105 2.496 L 12.16 2.609 L 12.16 2.496 L 12.105 2.496 Z M 22.781 0.637 L 22.836 0.75 L 22.836 0.637 L 22.781 0.637 Z M 32.789 2.496 L 32.844 2.609 L 32.844 2.496 L 32.789 2.496 Z M 45.824 1.828 L 45.879 1.941 L 45.879 1.828 L 45.824 1.828 Z M 14.313 3.328 L 14.371 3.438 L 14.371 3.328 L 14.313 3.328 Z M 34.996 3.328 L 35.055 3.438 L 35.055 3.328 L 34.996 3.328 Z" vector-effect="non-scaling-stroke"/></g></svg>
