<svg width="45pt" height="7pt" viewBox="0 0 45 7" xmlns="http://www.w3.org/2000/svg"><g id="fontsvg1685560519687" stroke-linecap="round" fill-rule="evenodd" fill="#ffffff"><path d="M 33.565 0.343 L 34.075 0.026 Q 34.404 0.109 34.822 0.152 A 7.521 7.521 0 0 0 34.835 0.154 L 35.534 0.215 Q 35.785 0.378 35.978 0.664 L 36.171 2.057 L 36.36 2.755 L 36.422 3.582 A 3.036 3.036 0 0 1 36.334 4.197 A 3.495 3.495 0 0 1 36.294 4.346 A 0.413 0.413 0 0 0 36.471 4.526 A 0.514 0.514 0 0 0 36.488 4.535 L 36.681 4.285 L 36.743 4.03 L 36.615 3.968 L 36.681 3.836 L 36.804 3.265 L 36.743 2.883 L 36.87 2.632 L 36.998 1.868 A 2.435 2.435 0 0 1 37.063 1.434 A 2.919 2.919 0 0 1 37.121 1.23 L 37.248 0.536 A 1.601 1.601 0 0 1 37.803 0.222 A 1.833 1.833 0 0 1 37.824 0.215 L 38.65 0.154 L 39.41 0.277 Q 39.546 0.615 39.599 0.98 L 39.599 2.694 L 39.538 3.265 L 39.599 3.458 L 39.599 4.03 L 39.665 4.157 L 39.599 4.219 L 39.665 4.856 L 39.599 5.682 A 3.984 3.984 0 0 1 39.333 5.843 A 5.368 5.368 0 0 1 39.028 5.999 A 2.492 2.492 0 0 1 38.558 5.933 A 3.022 3.022 0 0 1 38.333 5.871 A 1.375 1.375 0 0 1 38.029 5.403 A 1.594 1.594 0 0 1 38.013 5.361 L 38.263 1.613 A 1.595 1.595 0 0 0 38.088 1.921 A 2.002 2.002 0 0 0 38.013 2.123 L 37.696 4.219 A 3.401 3.401 0 0 1 37.572 4.57 A 4.379 4.379 0 0 1 37.441 4.856 L 37.507 5.427 L 37.441 5.621 A 3.358 3.358 0 0 1 37.206 5.778 Q 37.083 5.853 36.941 5.928 A 5.586 5.586 0 0 1 36.932 5.933 L 36.743 5.933 L 36.743 5.999 L 36.171 5.933 A 2.451 2.451 0 0 1 35.889 5.675 A 3.023 3.023 0 0 1 35.728 5.489 L 35.662 4.663 L 35.345 3.265 A 2.258 2.258 0 0 1 35.229 2.758 A 2.587 2.587 0 0 1 35.218 2.632 L 35.09 1.868 L 35.09 1.551 L 34.901 1.868 L 35.029 2.566 L 34.963 3.142 L 35.029 3.331 L 34.963 4.157 L 35.279 5.427 A 1.541 1.541 0 0 1 35.03 5.716 A 1.966 1.966 0 0 1 34.835 5.871 L 34.264 5.933 L 34.075 5.871 A 1.494 1.494 0 0 1 33.75 5.726 A 2.025 2.025 0 0 1 33.5 5.55 L 33.5 4.663 L 33.627 3.902 L 33.438 3.204 L 33.627 2.566 L 33.438 1.868 L 33.5 1.042 L 33.438 0.853 L 33.565 0.343 Z M 28.793 0.018 L 29.813 0.141 L 30.771 0.079 L 31.601 0.141 L 31.794 0.079 A 1.593 1.593 0 0 1 32.473 0.384 A 1.857 1.857 0 0 1 32.493 0.4 L 32.559 1.103 L 32.493 1.292 L 32.304 1.613 L 31.856 1.674 L 31.729 1.613 L 29.813 1.547 L 30.006 2.188 L 31.922 2.057 L 32.111 2.127 L 32.432 2.377 L 32.366 2.892 Q 32.26 3.243 32.045 3.595 L 31.091 3.656 L 30.195 3.401 A 1.207 1.207 0 0 0 29.893 4.04 A 1.544 1.544 0 0 0 29.878 4.166 Q 30.234 4.324 30.643 4.359 L 32.432 4.232 L 32.625 4.359 L 32.748 5.063 Q 32.704 5.467 32.493 5.889 L 31.794 5.955 L 31.601 5.889 L 30.643 5.766 A 3.69 3.69 0 0 1 29.82 5.887 A 4.121 4.121 0 0 1 29.747 5.889 L 28.854 6.021 A 1.746 1.746 0 0 1 28.349 5.662 A 2.134 2.134 0 0 1 28.213 5.511 L 28.151 4.808 L 28.213 4.614 L 28.279 4.104 L 28.213 3.977 L 28.213 3.595 L 28.279 2.509 L 28.213 1.613 L 28.279 0.527 A 1.743 1.743 0 0 1 28.532 0.23 A 2.35 2.35 0 0 1 28.793 0.018 Z M 41.041 0.018 L 42.06 0.141 L 43.018 0.079 L 43.849 0.141 L 44.042 0.079 A 1.593 1.593 0 0 1 44.721 0.384 A 1.857 1.857 0 0 1 44.741 0.4 L 44.807 1.103 L 44.741 1.292 L 44.552 1.613 L 44.104 1.674 L 43.976 1.613 L 42.06 1.547 L 42.253 2.188 L 44.169 2.057 L 44.358 2.127 L 44.679 2.377 L 44.613 2.892 Q 44.508 3.243 44.292 3.595 L 43.339 3.656 L 42.442 3.401 A 1.207 1.207 0 0 0 42.141 4.04 A 1.544 1.544 0 0 0 42.126 4.166 Q 42.482 4.324 42.891 4.359 L 44.679 4.232 L 44.873 4.359 L 44.996 5.063 Q 44.952 5.467 44.741 5.889 L 44.042 5.955 L 43.849 5.889 L 42.891 5.766 A 3.69 3.69 0 0 1 42.067 5.887 A 4.121 4.121 0 0 1 41.994 5.889 L 41.102 6.021 A 1.746 1.746 0 0 1 40.597 5.662 A 2.134 2.134 0 0 1 40.46 5.511 L 40.399 4.808 L 40.46 4.614 L 40.526 4.104 L 40.46 3.977 L 40.46 3.595 L 40.526 2.509 L 40.46 1.613 L 40.526 0.527 A 1.743 1.743 0 0 1 40.78 0.23 A 2.35 2.35 0 0 1 41.041 0.018 Z M 25.792 0.233 L 26.732 0.044 A 1.167 1.167 0 0 1 27.456 0.446 A 1.505 1.505 0 0 1 27.488 0.483 L 27.365 1.428 L 27.426 3.379 L 27.365 3.564 L 27.426 4.381 L 27.365 4.575 L 27.426 5.326 A 0.998 0.998 0 0 1 27.071 5.821 A 1.424 1.424 0 0 1 26.859 5.955 Q 26.402 5.928 25.919 5.827 A 1.452 1.452 0 0 1 25.72 5.353 Q 25.677 5.166 25.67 4.949 A 2.57 2.57 0 0 1 25.668 4.887 L 25.73 4.008 L 25.98 3.502 L 25.73 3.564 L 24.913 3.625 L 24.724 3.564 A 0.83 0.83 0 0 0 24.107 3.9 A 1.145 1.145 0 0 0 24.034 4.008 L 24.218 5.515 L 23.972 5.827 L 23.027 5.955 A 0.952 0.952 0 0 1 22.461 5.506 A 1.334 1.334 0 0 1 22.399 5.388 L 22.46 4.698 L 22.399 4.447 L 22.46 3.625 L 22.399 3.441 L 22.46 2.496 A 3.439 3.439 0 0 1 22.645 1.704 A 3.816 3.816 0 0 1 22.654 1.679 Q 22.513 1.323 22.399 0.861 Q 22.465 0.422 22.9 0.171 L 23.779 0.11 A 1.096 1.096 0 0 1 24.16 0.642 A 1.512 1.512 0 0 1 24.218 0.861 L 24.161 1.745 L 24.034 2.307 L 24.218 2.373 L 24.284 2.307 A 6.001 6.001 0 0 1 25.04 2.144 A 6.794 6.794 0 0 1 25.225 2.118 A 2.547 2.547 0 0 0 25.427 2.155 Q 25.567 2.174 25.73 2.184 L 25.792 1.806 A 5.254 5.254 0 0 1 25.674 1.009 A 5.833 5.833 0 0 1 25.668 0.923 L 25.607 0.356 L 25.792 0.233 Z M 0 0.378 L 0.633 0 Q 1.037 0.053 1.52 0.189 L 1.837 0.439 L 1.714 2.725 L 1.775 3.74 A 1.791 1.791 0 0 0 1.878 4.069 A 2.473 2.473 0 0 0 2.03 4.373 L 2.663 4.5 L 2.856 4.434 A 1.584 1.584 0 0 0 3.063 4.078 A 2.176 2.176 0 0 0 3.173 3.74 L 3.107 2.786 L 3.173 2.092 L 3.107 1.837 L 3.173 1.015 L 3.045 0.567 L 3.107 0.439 L 3.234 0.25 L 3.995 0 A 3.856 3.856 0 0 1 4.472 0.078 A 5.071 5.071 0 0 1 4.882 0.189 L 4.948 0.439 L 4.882 1.143 L 4.693 1.332 A 1.565 1.565 0 0 1 4.771 1.566 Q 4.801 1.684 4.819 1.819 A 2.579 2.579 0 0 1 4.821 1.837 L 4.755 2.786 L 4.882 3.423 L 4.821 3.674 A 4.541 4.541 0 0 1 4.77 4.223 A 5.734 5.734 0 0 1 4.693 4.623 Q 4.54 4.926 4.315 5.199 L 3.74 5.704 L 2.918 5.955 L 2.602 5.889 L 2.347 6.021 L 2.153 5.955 L 1.27 5.832 L 0.694 5.326 A 3.846 3.846 0 0 1 0.358 4.967 A 4.652 4.652 0 0 1 0.189 4.75 L 0 3.168 L 0 2.092 L 0.062 1.393 Q 0.004 0.974 0 0.451 A 10.236 10.236 0 0 1 0 0.378 Z M 5.805 0.536 L 6.24 0.097 L 7.431 0.286 L 7.559 0.224 L 7.743 0.224 L 7.743 0.163 L 8.561 0.286 L 9.374 0.224 L 10.063 0.347 A 3.494 3.494 0 0 1 10.134 0.674 Q 10.164 0.847 10.182 1.042 A 5.88 5.88 0 0 1 10.187 1.099 A 1.733 1.733 0 0 1 9.875 1.727 L 9.062 1.789 L 8.183 1.727 L 7.682 1.604 L 7.497 1.666 L 7.37 1.85 L 7.431 2.355 L 7.62 2.417 L 8.873 2.29 L 9.747 2.355 L 9.94 3.107 L 9.747 3.797 L 8.938 3.924 L 7.682 3.731 A 0.301 0.301 0 0 0 7.583 3.77 A 0.266 0.266 0 0 0 7.497 3.858 L 7.431 4.047 Q 7.48 4.229 7.494 4.468 A 3.137 3.137 0 0 1 7.497 4.548 L 7.559 5.111 L 7.497 5.3 L 7.559 5.805 L 7.304 5.928 L 6.618 5.99 Q 6.327 5.97 5.988 5.83 A 3.028 3.028 0 0 1 5.928 5.805 A 1.554 1.554 0 0 1 5.73 5.417 A 1.904 1.904 0 0 1 5.678 5.238 L 5.805 4.421 L 5.739 3.608 L 5.805 2.918 L 5.739 2.043 L 5.805 1.477 L 5.739 1.288 L 5.678 0.725 L 5.805 0.536 Z M 19.055 0.154 L 19.314 0.088 L 19.767 0.215 L 19.96 0.154 L 21.393 0.088 L 21.586 0.154 L 21.784 0.545 L 21.845 0.804 L 21.713 1.516 L 21.393 1.648 L 20.29 1.45 L 20.351 2.426 L 20.29 2.619 L 20.351 4.047 L 20.29 4.764 L 20.351 5.023 L 20.351 5.476 A 1.643 1.643 0 0 1 19.584 6.058 A 2.139 2.139 0 0 1 19.375 6.126 A 3.549 3.549 0 0 1 18.532 5.867 L 18.466 5.607 L 18.532 5.476 L 18.598 4.373 L 18.532 3.463 L 18.664 3.27 L 18.598 3.076 L 18.466 2.492 L 18.725 1.841 Q 18.69 1.74 18.588 1.716 A 0.29 0.29 0 0 0 18.532 1.709 L 17.622 1.907 A 1.656 1.656 0 0 1 17.198 1.066 A 2.134 2.134 0 0 1 17.169 0.866 A 1.352 1.352 0 0 1 17.658 0.169 A 1.865 1.865 0 0 1 17.881 0.022 Q 18.316 0.105 18.87 0.143 A 12.154 12.154 0 0 0 19.055 0.154 Z M 11.997 0.62 L 12.916 0.07 L 13.896 0.07 L 14.322 0.193 A 3.285 3.285 0 0 1 14.892 0.383 A 4.381 4.381 0 0 1 15.359 0.62 A 2.323 2.323 0 0 1 15.742 0.957 Q 15.903 1.131 16.051 1.351 A 3.982 3.982 0 0 1 16.093 1.415 L 16.462 2.457 Q 16.365 2.773 16.339 3.125 L 16.4 3.371 A 5.537 5.537 0 0 1 16.198 4.282 A 6.452 6.452 0 0 1 16.093 4.592 L 15.359 5.388 Q 15.111 5.563 14.77 5.757 A 11.994 11.994 0 0 1 14.44 5.937 L 13.1 5.999 A 3.713 3.713 0 0 1 12.524 5.772 A 4.92 4.92 0 0 1 12.059 5.511 Q 11.691 5.238 11.276 4.851 A 12.507 12.507 0 0 1 11.263 4.838 L 10.898 3.678 L 10.96 2.514 A 3.051 3.051 0 0 1 11.048 2.033 Q 11.126 1.74 11.263 1.415 L 11.997 0.62 Z M 13.465 1.6 L 12.669 2.21 L 12.546 3.001 A 1.844 1.844 0 0 0 12.658 3.507 A 2.571 2.571 0 0 0 12.854 3.92 A 1.631 1.631 0 0 0 13.621 4.322 A 2.039 2.039 0 0 0 13.772 4.351 A 1.539 1.539 0 0 0 14.408 3.916 A 1.908 1.908 0 0 0 14.506 3.797 A 3.373 3.373 0 0 0 14.593 3.455 Q 14.656 3.147 14.687 2.76 A 1.511 1.511 0 0 0 14.563 2.289 A 2.065 2.065 0 0 0 14.383 1.964 A 4.089 4.089 0 0 0 13.665 1.659 A 4.703 4.703 0 0 0 13.465 1.6 Z M 23.405 2.307 L 23.467 2.874 L 23.093 3.063 Q 23.181 3.111 23.339 3.125 L 23.656 2.747 Q 23.569 2.537 23.408 2.311 A 2.979 2.979 0 0 0 23.405 2.307 Z M 15.724 3.309 L 15.482 3.309 L 15.179 3.555 A 1.542 1.542 0 0 0 15.274 3.794 Q 15.335 3.916 15.42 4.043 L 15.359 3.555 L 15.724 3.309 Z M 19.569 2.751 L 19.446 2.553 L 19.248 3.397 L 19.446 3.335 L 19.569 2.751 Z M 15.236 1.538 L 14.625 0.989 A 0.711 0.711 0 0 0 15.035 1.471 A 1.07 1.07 0 0 0 15.236 1.538 Z M 4.25 3.041 L 3.995 2.659 L 3.867 3.296 A 0.134 0.134 0 0 0 3.948 3.249 Q 3.966 3.23 3.98 3.202 A 0.35 0.35 0 0 0 3.995 3.168 L 4.25 3.041 Z M 26.046 2.496 L 25.792 2.624 L 25.668 2.558 A 1.361 1.361 0 0 0 25.853 3.063 Q 26.029 2.813 26.046 2.496 Z M 34.264 2.694 L 34.203 2.632 L 34.264 2.949 L 34.203 3.142 L 34.392 2.949 L 34.519 2.632 L 34.264 2.694 Z M 13.83 5.265 L 13.83 5.449 L 14.019 5.388 L 14.26 5.265 A 0.412 0.412 0 0 0 14.095 4.976 A 0.538 0.538 0 0 0 14.076 4.961 A 0.877 0.877 0 0 0 13.904 5.144 A 1.119 1.119 0 0 0 13.83 5.265 Z M 6.495 1.477 Q 6.671 1.819 7.058 1.85 A 0.676 0.676 0 0 0 6.631 1.507 A 1.017 1.017 0 0 0 6.495 1.477 Z M 0.954 1.837 L 0.76 1.648 L 0.633 2.026 L 0.826 2.153 L 0.954 1.837 Z M 22.966 4.381 L 23.027 4.821 L 23.278 4.759 A 0.716 0.716 0 0 0 23.165 4.57 Q 23.106 4.497 23.025 4.429 A 1.392 1.392 0 0 0 22.966 4.381 Z M 29.747 4.746 L 29.496 5.063 L 29.619 5.256 Q 29.742 5.027 29.747 4.746 Z M 41.994 4.746 L 41.744 5.063 L 41.867 5.256 Q 41.99 5.027 41.994 4.746 Z M 26.292 4.258 L 26.169 4.509 L 26.609 4.509 Q 26.477 4.342 26.292 4.258 Z M 11.751 2.391 L 11.632 2.698 L 11.817 2.821 L 11.94 2.76 A 0.679 0.679 0 0 0 11.751 2.391 Z M 13.403 5.203 L 13.223 4.961 L 13.1 5.265 L 13.28 5.326 L 13.403 5.203 Z M 34.137 1.551 L 34.453 1.613 A 0.485 0.485 0 0 0 34.362 1.344 A 0.628 0.628 0 0 0 34.326 1.296 Q 34.203 1.384 34.137 1.551 Z M 19.446 1.907 A 0.799 0.799 0 0 0 19.343 2.154 A 1.109 1.109 0 0 0 19.314 2.36 A 0.931 0.931 0 0 0 19.437 2.005 A 1.137 1.137 0 0 0 19.446 1.907 Z M 31.025 0.593 A 0.607 0.607 0 0 0 31.212 0.827 A 0.842 0.842 0 0 0 31.342 0.91 A 0.996 0.996 0 0 0 31.198 0.735 Q 31.125 0.664 31.031 0.598 A 1.644 1.644 0 0 0 31.025 0.593 Z M 43.273 0.593 A 0.607 0.607 0 0 0 43.46 0.827 A 0.842 0.842 0 0 0 43.589 0.91 A 0.996 0.996 0 0 0 43.445 0.735 Q 43.372 0.664 43.279 0.598 A 1.644 1.644 0 0 0 43.273 0.593 Z M 6.807 2.228 L 6.552 2.167 Q 6.555 2.316 6.616 2.41 A 0.306 0.306 0 0 0 6.68 2.483 L 6.807 2.228 Z M 30.771 5.128 L 30.45 4.997 L 30.516 5.256 L 30.771 5.128 Z M 43.018 5.128 L 42.697 4.997 L 42.763 5.256 L 43.018 5.128 Z M 38.839 1.929 L 38.65 2.316 A 0.71 0.71 0 0 0 38.839 1.929 Z M 29.303 1.424 L 29.109 1.806 Q 29.272 1.652 29.303 1.424 Z M 41.55 1.424 L 41.357 1.806 Q 41.52 1.652 41.55 1.424 Z M 8.622 0.976 L 8.433 0.914 L 8.433 1.226 L 8.622 0.976 Z M 1.015 3.234 L 0.954 3.168 L 0.826 3.423 L 1.015 3.485 L 1.015 3.234 Z M 12.428 1.6 L 12.182 1.6 A 0.49 0.49 0 0 0 12.305 1.841 L 12.428 1.6 Z M 28.727 4.232 A 0.394 0.394 0 0 0 28.853 4.408 Q 28.904 4.449 28.97 4.481 A 0.758 0.758 0 0 0 28.982 4.487 A 0.349 0.349 0 0 0 28.843 4.294 A 0.557 0.557 0 0 0 28.727 4.232 Z M 40.975 4.232 A 0.394 0.394 0 0 0 41.101 4.408 Q 41.151 4.449 41.218 4.481 A 0.758 0.758 0 0 0 41.229 4.487 A 0.349 0.349 0 0 0 41.091 4.294 A 0.557 0.557 0 0 0 40.975 4.232 Z M 26.547 1.428 L 26.292 1.679 Q 26.481 1.644 26.547 1.428 Z M 34.326 4.03 L 34.075 4.03 L 34.137 4.219 L 34.326 4.03 Z M 18.079 0.804 L 17.952 0.998 L 18.211 0.932 A 0.17 0.17 0 0 0 18.182 0.885 Q 18.15 0.848 18.092 0.812 A 0.648 0.648 0 0 0 18.079 0.804 Z M 7.242 3.045 L 7.181 2.795 L 7.058 2.979 L 7.242 3.045 Z M 34.708 1.042 L 34.642 1.042 L 34.519 1.23 L 34.708 1.23 L 34.708 1.042 Z M 19.368 1.12 A 0.711 0.711 0 0 0 19.375 1.125 A 0.612 0.612 0 0 0 19.253 0.932 A 0.775 0.775 0 0 0 19.182 0.866 Q 19.216 1.012 19.368 1.12 Z M 31.28 4.935 L 31.091 5.19 Q 31.237 5.127 31.274 4.971 A 0.427 0.427 0 0 0 31.28 4.935 Z M 43.528 4.935 L 43.339 5.19 Q 43.485 5.127 43.521 4.971 A 0.427 0.427 0 0 0 43.528 4.935 Z M 11.997 4.166 L 11.874 4.104 L 11.817 4.351 L 11.997 4.166 Z M 26.798 1.239 L 26.675 1.239 L 26.732 1.49 L 26.798 1.239 Z M 26.732 2.558 L 26.486 2.373 A 0.461 0.461 0 0 0 26.727 2.556 A 0.571 0.571 0 0 0 26.732 2.558 Z M 11.694 1.903 L 11.509 1.903 Q 11.536 2.021 11.632 2.087 L 11.694 1.903 Z M 19.507 3.854 L 19.375 3.986 L 19.639 3.92 L 19.507 3.854 Z M 29.038 3.844 A 0.606 0.606 0 0 0 29.043 3.85 A 0.3 0.3 0 0 0 28.994 3.687 Q 28.968 3.646 28.928 3.606 A 0.588 0.588 0 0 0 28.916 3.595 Q 28.92 3.728 29.038 3.844 Z M 41.285 3.844 A 0.606 0.606 0 0 0 41.291 3.85 A 0.3 0.3 0 0 0 41.242 3.687 Q 41.216 3.646 41.175 3.606 A 0.588 0.588 0 0 0 41.164 3.595 Q 41.168 3.728 41.285 3.844 Z M 19.507 4.632 L 19.314 4.83 A 0.295 0.295 0 0 0 19.405 4.792 Q 19.477 4.745 19.502 4.655 A 0.321 0.321 0 0 0 19.507 4.632 Z M 7.937 2.918 L 8.06 3.168 Q 8.033 3.028 7.937 2.918 Z M 8.745 2.979 A 0.314 0.314 0 0 0 8.921 3.162 A 0.4 0.4 0 0 0 8.938 3.168 A 0.298 0.298 0 0 0 8.771 2.99 A 0.404 0.404 0 0 0 8.745 2.979 Z M 12.612 1.173 L 12.366 1.05 A 0.43 0.43 0 0 0 12.612 1.173 Z M 28.916 5.128 L 29.109 5.317 Q 29.065 5.181 28.916 5.128 Z M 41.164 5.128 L 41.357 5.317 Q 41.313 5.181 41.164 5.128 Z M 19.314 4.179 L 19.248 4.307 L 19.375 4.373 L 19.375 4.179 L 19.314 4.179 Z M 11.751 3.371 L 11.694 3.371 L 11.632 3.555 L 11.751 3.494 L 11.751 3.371 Z M 29.364 2.826 L 29.237 2.76 L 29.303 2.953 L 29.364 2.826 Z M 41.612 2.826 L 41.484 2.76 L 41.55 2.953 L 41.612 2.826 Z M 28.982 2.571 L 28.854 2.509 L 28.916 2.698 L 28.982 2.571 Z M 41.229 2.571 L 41.102 2.509 L 41.164 2.698 L 41.229 2.571 Z M 29.175 2.377 L 28.982 2.316 A 0.165 0.165 0 0 0 29.04 2.403 Q 29.068 2.426 29.109 2.443 L 29.175 2.377 Z M 41.423 2.377 L 41.229 2.316 A 0.165 0.165 0 0 0 41.287 2.403 Q 41.316 2.426 41.357 2.443 L 41.423 2.377 Z M 19.314 1.841 L 19.182 1.648 A 0.308 0.308 0 0 0 19.226 1.757 A 0.284 0.284 0 0 0 19.314 1.841 Z M 19.96 1.516 L 19.767 1.389 A 0.263 0.263 0 0 0 19.847 1.466 Q 19.894 1.497 19.96 1.516 Z M 6.495 1.037 A 0.244 0.244 0 0 0 6.588 1.128 Q 6.623 1.148 6.667 1.161 A 0.477 0.477 0 0 0 6.68 1.165 A 0.22 0.22 0 0 0 6.598 1.079 Q 6.566 1.059 6.524 1.046 A 0.472 0.472 0 0 0 6.495 1.037 Z M 26.675 3.753 A 0.248 0.248 0 0 0 26.753 3.833 Q 26.798 3.862 26.859 3.88 A 0.22 0.22 0 0 0 26.777 3.795 Q 26.745 3.775 26.704 3.761 A 0.472 0.472 0 0 0 26.675 3.753 Z M 3.929 3.357 L 3.867 3.357 L 3.929 3.551 L 3.929 3.357 Z M 6.741 3.858 L 6.93 3.981 A 0.209 0.209 0 0 0 6.86 3.908 Q 6.83 3.888 6.791 3.874 A 0.491 0.491 0 0 0 6.741 3.858 Z M 26.358 0.861 L 26.169 0.738 A 0.233 0.233 0 0 0 26.248 0.816 Q 26.279 0.836 26.32 0.85 A 0.495 0.495 0 0 0 26.358 0.861 Z M 9.123 3.045 L 9.312 3.168 A 0.233 0.233 0 0 0 9.234 3.091 Q 9.202 3.071 9.162 3.057 A 0.495 0.495 0 0 0 9.123 3.045 Z M 6.552 4.86 L 6.495 4.988 L 6.618 4.988 L 6.618 4.86 L 6.552 4.86 Z M 7.119 0.787 L 7.304 0.914 A 0.22 0.22 0 0 0 7.222 0.828 Q 7.19 0.809 7.148 0.795 A 0.472 0.472 0 0 0 7.119 0.787 Z M 1.397 4.562 L 1.332 4.562 L 1.397 4.75 L 1.397 4.562 Z M 38.839 1.424 L 38.773 1.424 L 38.839 1.613 L 38.839 1.424 Z M 15.724 2.58 L 15.543 2.514 Q 15.561 2.597 15.667 2.637 L 15.724 2.58 Z M 3.867 1.459 L 3.806 1.459 L 3.867 1.648 L 3.867 1.459 Z M 29.426 4.425 A 0.157 0.157 0 0 0 29.47 4.497 Q 29.503 4.529 29.558 4.553 Q 29.546 4.476 29.454 4.436 A 0.348 0.348 0 0 0 29.426 4.425 Z M 41.673 4.425 A 0.157 0.157 0 0 0 41.717 4.497 Q 41.75 4.529 41.805 4.553 Q 41.794 4.476 41.701 4.436 A 0.348 0.348 0 0 0 41.673 4.425 Z M 18.923 0.998 A 0.144 0.144 0 0 0 18.971 1.077 Q 18.992 1.095 19.021 1.11 A 0.361 0.361 0 0 0 19.055 1.125 A 0.145 0.145 0 0 0 19.028 1.079 Q 18.999 1.044 18.943 1.01 A 0.621 0.621 0 0 0 18.923 0.998 Z M 4.056 1.266 A 0.16 0.16 0 0 0 4.111 1.349 Q 4.142 1.375 4.188 1.393 A 0.141 0.141 0 0 0 4.165 1.353 Q 4.131 1.31 4.056 1.266 Z M 1.964 5.133 A 0.165 0.165 0 0 0 2.022 5.22 Q 2.051 5.243 2.092 5.26 A 0.134 0.134 0 0 0 2.045 5.179 Q 2.026 5.162 1.998 5.148 A 0.35 0.35 0 0 0 1.964 5.133 Z M 23.845 3.252 A 0.134 0.134 0 0 0 23.891 3.333 Q 23.911 3.35 23.939 3.365 A 0.35 0.35 0 0 0 23.972 3.379 Q 23.952 3.318 23.86 3.261 A 0.61 0.61 0 0 0 23.845 3.252 Z M 1.143 4.307 A 0.15 0.15 0 0 0 1.207 4.402 Q 1.23 4.418 1.26 4.43 A 0.341 0.341 0 0 0 1.27 4.434 Q 1.251 4.381 1.17 4.325 A 0.675 0.675 0 0 0 1.143 4.307 Z M 1.066 3.919 A 0.61 0.61 0 0 0 1.081 3.929 A 0.148 0.148 0 0 0 1.03 3.845 Q 1 3.82 0.954 3.801 Q 0.974 3.862 1.066 3.919 Z M 23.278 4.258 Q 23.3 4.337 23.405 4.381 A 0.129 0.129 0 0 0 23.356 4.299 Q 23.336 4.283 23.309 4.271 A 0.339 0.339 0 0 0 23.278 4.258 Z M 12.647 1.59 A 0.331 0.331 0 0 0 12.669 1.6 Q 12.658 1.525 12.569 1.486 A 0.331 0.331 0 0 0 12.546 1.477 Q 12.558 1.551 12.647 1.59 Z M 26.108 3.625 A 0.187 0.187 0 0 0 26.138 3.674 Q 26.17 3.713 26.227 3.751 A 0.627 0.627 0 0 0 26.231 3.753 Q 26.219 3.68 26.135 3.638 A 0.341 0.341 0 0 0 26.108 3.625 Z M 6.68 4.487 A 0.14 0.14 0 0 0 6.724 4.561 Q 6.744 4.579 6.771 4.593 A 0.356 0.356 0 0 0 6.807 4.61 A 0.142 0.142 0 0 0 6.783 4.569 Q 6.756 4.535 6.704 4.502 A 0.636 0.636 0 0 0 6.68 4.487 Z M 24.346 2.94 Q 24.368 3.019 24.473 3.063 A 0.146 0.146 0 0 0 24.445 3.015 Q 24.415 2.98 24.359 2.947 A 0.574 0.574 0 0 0 24.346 2.94 Z M 34.774 0.853 L 34.901 0.98 Q 34.881 0.919 34.789 0.862 A 0.61 0.61 0 0 0 34.774 0.853 Z M 15.156 4.034 A 0.331 0.331 0 0 0 15.179 4.043 A 0.148 0.148 0 0 0 15.154 4.001 Q 15.127 3.966 15.075 3.932 A 0.626 0.626 0 0 0 15.056 3.92 Q 15.067 3.994 15.156 4.034 Z M 15.302 2.698 A 0.149 0.149 0 0 0 15.351 2.779 Q 15.379 2.803 15.42 2.821 Q 15.407 2.738 15.302 2.698 Z M 24.218 2.685 L 24.284 2.813 L 24.284 2.685 L 24.218 2.685 Z M 29.109 3.85 L 29.175 3.977 L 29.175 3.85 L 29.109 3.85 Z M 41.357 3.85 L 41.423 3.977 L 41.423 3.85 L 41.357 3.85 Z M 34.392 0.853 L 34.453 0.98 L 34.453 0.853 L 34.392 0.853 Z M 34.519 1.679 L 34.581 1.806 L 34.581 1.679 L 34.519 1.679 Z M 12.182 3.74 L 12.243 3.863 L 12.243 3.74 L 12.182 3.74 Z" vector-effect="non-scaling-stroke"/></g></svg>