<svg width="108pt" height="14pt" viewBox="0 0 108 14" xmlns="http://www.w3.org/2000/svg"><g id="fontsvg1673810548550" stroke-linecap="round" fill-rule="evenodd" fill="#ffffff"><path d="M 84.697 0.859 L 86.807 0.156 L 88.916 0.303 L 91.299 1.289 L 92.842 2.686 A 3.766 3.766 0 0 1 93.244 3.385 A 4.657 4.657 0 0 1 93.408 3.809 L 92.842 4.375 L 90.879 5.215 L 89.189 4.092 L 88.066 3.809 L 86.807 3.945 A 6.65 6.65 0 0 0 85.684 5.277 A 7.549 7.549 0 0 0 85.547 5.498 L 85.264 6.895 L 85.4 7.314 L 85.4 7.734 A 2.517 2.517 0 0 0 85.727 8.878 A 3.507 3.507 0 0 0 86.104 9.424 Q 87.051 9.785 88.213 9.99 A 10.913 10.913 0 0 0 89.161 9.527 A 14.424 14.424 0 0 0 90.039 9.004 A 6.45 6.45 0 0 1 89.047 8.903 Q 88.45 8.797 87.783 8.584 A 5.909 5.909 0 0 1 87.551 8.024 A 7.93 7.93 0 0 1 87.373 7.461 L 87.51 6.201 L 88.066 5.498 L 91.572 5.781 L 92.559 5.635 L 92.979 5.781 L 93.408 6.621 L 93.125 10.977 L 93.262 12.93 L 92.842 13.076 L 92.559 13.359 A 10.509 10.509 0 0 1 91.092 13.038 A 11.968 11.968 0 0 1 90.742 12.93 L 90.039 12.373 A 2.197 2.197 0 0 1 89.621 12.797 A 2.992 2.992 0 0 1 89.189 13.076 Q 88.184 13.398 87.09 13.496 Q 86.066 13.432 84.861 12.991 A 11.532 11.532 0 0 1 84.697 12.93 L 83.164 11.807 L 81.895 10.127 L 81.475 8.018 Q 81.592 6.973 81.895 5.918 L 81.611 4.795 L 81.895 3.672 L 83.164 2.129 L 84.697 0.859 Z M 34.082 0.42 L 35.908 0 A 1.634 1.634 0 0 1 37.025 0.886 A 2.463 2.463 0 0 1 37.178 1.26 L 37.461 2.949 A 7.185 7.185 0 0 0 37.222 4.173 A 8.671 8.671 0 0 0 37.178 4.775 L 37.031 6.602 L 37.178 8.574 L 36.895 10.684 L 35.908 11.953 L 34.502 12.93 L 32.676 13.496 L 31.27 13.213 L 30.703 13.359 L 29.023 12.793 A 8.289 8.289 0 0 1 28.142 12.061 A 9.807 9.807 0 0 1 27.754 11.67 L 26.631 10.4 A 14.191 14.191 0 0 0 26.472 8.971 A 16.79 16.79 0 0 0 26.348 8.291 L 26.631 7.305 L 26.484 6.465 L 26.631 5.898 L 26.484 4.355 L 26.631 3.789 L 26.484 2.246 A 3.701 3.701 0 0 1 26.72 1.007 A 4.579 4.579 0 0 1 26.914 0.557 L 28.32 0.273 L 28.74 0.42 L 30 0.273 L 30.283 0.703 L 30.566 2.109 L 30.283 2.666 L 30.146 6.748 L 30.283 8.711 A 9.374 9.374 0 0 0 30.694 9.287 Q 30.921 9.581 31.191 9.891 A 15.534 15.534 0 0 0 31.27 9.98 L 32.539 10.117 L 33.096 9.697 L 33.662 8.008 L 33.379 2.383 L 33.242 1.963 L 33.379 1.826 A 3.389 3.389 0 0 1 34.017 0.501 A 3.947 3.947 0 0 1 34.082 0.42 Z M 39.268 0.01 L 41.143 0.303 L 42.012 0.156 L 42.295 0.303 L 45.186 0.303 L 46.338 0.156 L 46.631 0.303 A 10.27 10.27 0 0 1 47.484 0.581 A 13.374 13.374 0 0 1 48.213 0.879 L 49.512 1.748 L 50.088 3.33 L 50.234 4.766 L 49.658 6.65 A 4.886 4.886 0 0 1 48.61 7.588 A 5.521 5.521 0 0 1 48.506 7.656 L 47.92 7.949 A 1.388 1.388 0 0 0 48.202 8.503 A 1.788 1.788 0 0 0 48.359 8.672 A 8.027 8.027 0 0 1 48.807 9.488 A 10.073 10.073 0 0 1 49.082 10.117 L 49.951 11.123 L 50.381 12.705 A 9.816 9.816 0 0 1 49.35 13.086 A 12.209 12.209 0 0 1 48.643 13.281 L 47.344 13.135 L 46.914 13.281 A 2.829 2.829 0 0 1 46.272 12.781 Q 46.036 12.538 45.822 12.221 A 4.954 4.954 0 0 1 45.762 12.129 L 45.186 10.693 L 44.326 9.385 A 2.735 2.735 0 0 0 43.232 8.733 A 3.322 3.322 0 0 0 43.018 8.672 L 42.451 9.102 L 42.725 9.961 L 42.881 11.123 L 42.588 11.553 A 3.91 3.91 0 0 1 42.74 12.009 Q 42.804 12.247 42.851 12.519 A 7.033 7.033 0 0 1 42.881 12.705 L 42.588 13.135 A 7.223 7.223 0 0 1 41.718 13.405 A 9.631 9.631 0 0 1 40.85 13.574 L 39.414 13.135 A 5.203 5.203 0 0 1 39.027 12.247 A 6.669 6.669 0 0 1 38.838 11.553 L 38.975 7.373 L 38.838 6.504 L 38.975 6.211 L 38.975 5.498 L 39.131 3.477 A 9.55 9.55 0 0 1 38.965 2.695 Q 38.888 2.252 38.838 1.748 A 7.029 7.029 0 0 1 39.227 0.118 A 7.845 7.845 0 0 1 39.268 0.01 Z M 0.576 0.264 L 1.572 0.4 L 1.855 0.264 L 2.285 0.264 L 4.004 0.547 L 5.566 2.969 L 6.143 4.404 Q 6.563 4.16 6.855 3.682 L 7.559 2.402 A 5.506 5.506 0 0 1 8.17 1.278 A 6.226 6.226 0 0 1 8.281 1.123 A 5.081 5.081 0 0 1 9.707 0.547 L 11.279 0.693 A 3.624 3.624 0 0 1 12.261 0.977 A 4.322 4.322 0 0 1 12.559 1.123 Q 12.451 1.719 12.129 2.402 L 11.133 3.398 L 9.424 5.547 L 8.711 6.826 A 7.137 7.137 0 0 0 8.29 7.508 A 9.189 9.189 0 0 0 7.988 8.115 L 8.281 9.688 L 8.145 10.967 L 8.281 11.396 L 8.418 12.539 L 8.145 12.969 L 6.709 13.535 L 5 13.242 A 6.094 6.094 0 0 1 4.452 12.58 A 7.606 7.606 0 0 1 4.141 12.109 L 4.424 10.391 L 4.141 8.682 L 4.424 8.252 L 4.141 7.393 L 1.855 3.828 L 0.859 2.832 L 0 1.689 Q 0.176 1.016 0.576 0.264 Z M 61.191 0.85 L 61.475 1.279 L 61.191 3.408 L 61.475 5.254 L 61.191 5.684 L 61.328 9.814 L 61.475 9.814 L 61.328 10.234 L 61.904 9.951 L 64.033 9.521 L 64.463 9.668 A 6.212 6.212 0 0 1 65.421 9.797 A 7.71 7.71 0 0 1 66.025 9.951 L 66.162 12.793 L 65.459 13.359 L 62.471 13.223 A 17.128 17.128 0 0 1 61.18 13.401 Q 60.45 13.476 59.629 13.506 L 58.066 13.506 A 3.168 3.168 0 0 1 57.849 13.095 Q 57.731 12.831 57.637 12.51 L 57.49 10.947 L 57.637 9.951 L 57.354 8.672 L 57.637 7.393 L 57.49 4.688 L 57.637 3.408 L 57.49 2.412 L 57.354 1.992 A 2.639 2.639 0 0 1 58.174 0.505 A 3.736 3.736 0 0 1 58.633 0.137 Q 59.873 0.244 61.191 0.85 Z M 22.598 1.621 L 24.219 3.252 A 13.185 13.185 0 0 0 24.52 4.618 A 17.358 17.358 0 0 0 24.902 5.83 L 24.629 8.672 A 3.969 3.969 0 0 1 24.179 9.931 A 5.568 5.568 0 0 1 23.555 10.83 Q 23.079 11.672 22.183 12.488 A 9.972 9.972 0 0 1 22.061 12.598 A 16.037 16.037 0 0 1 20.986 13.083 Q 20.41 13.32 19.756 13.545 L 16.777 13.408 A 8.832 8.832 0 0 1 15.644 12.814 A 11.578 11.578 0 0 1 14.746 12.197 A 6.951 6.951 0 0 1 14.085 11.532 Q 13.664 11.05 13.252 10.43 A 9.929 9.929 0 0 1 12.785 9.062 A 12.404 12.404 0 0 1 12.578 8.135 L 12.441 6.768 L 12.715 5.42 A 9.291 9.291 0 0 1 13.158 4.15 A 12.218 12.218 0 0 1 13.662 3.115 A 11.764 11.764 0 0 1 14.29 2.425 Q 14.623 2.085 15.015 1.732 A 20.058 20.058 0 0 1 15.283 1.494 A 7.529 7.529 0 0 1 16.061 0.943 Q 16.476 0.685 16.969 0.439 A 14.024 14.024 0 0 1 17.314 0.273 A 17.312 17.312 0 0 1 18.74 0.408 A 23.469 23.469 0 0 1 20.303 0.674 A 8.117 8.117 0 0 1 21.563 1.104 A 10.767 10.767 0 0 1 22.598 1.621 Z M 77.686 1.621 L 79.307 3.252 A 13.185 13.185 0 0 0 79.608 4.618 A 17.358 17.358 0 0 0 79.99 5.83 L 79.717 8.672 A 3.969 3.969 0 0 1 79.267 9.931 A 5.568 5.568 0 0 1 78.643 10.83 Q 78.167 11.672 77.271 12.488 A 9.972 9.972 0 0 1 77.148 12.598 A 16.037 16.037 0 0 1 76.074 13.083 Q 75.498 13.32 74.844 13.545 L 71.865 13.408 A 8.832 8.832 0 0 1 70.732 12.814 A 11.578 11.578 0 0 1 69.834 12.197 A 6.951 6.951 0 0 1 69.173 11.532 Q 68.752 11.05 68.34 10.43 A 9.929 9.929 0 0 1 67.873 9.062 A 12.404 12.404 0 0 1 67.666 8.135 L 67.529 6.768 L 67.803 5.42 A 9.291 9.291 0 0 1 68.246 4.15 A 12.218 12.218 0 0 1 68.75 3.115 A 11.764 11.764 0 0 1 69.378 2.425 Q 69.711 2.085 70.103 1.732 A 20.058 20.058 0 0 1 70.371 1.494 A 7.529 7.529 0 0 1 71.149 0.943 Q 71.564 0.685 72.057 0.439 A 14.024 14.024 0 0 1 72.402 0.273 A 17.312 17.312 0 0 1 73.828 0.408 A 23.469 23.469 0 0 1 75.391 0.674 A 8.117 8.117 0 0 1 76.651 1.104 A 10.767 10.767 0 0 1 77.686 1.621 Z M 105.107 1.621 L 106.729 3.252 A 13.185 13.185 0 0 0 107.03 4.618 A 17.358 17.358 0 0 0 107.412 5.83 L 107.139 8.672 A 3.969 3.969 0 0 1 106.689 9.931 A 5.568 5.568 0 0 1 106.064 10.83 Q 105.589 11.672 104.693 12.488 A 9.972 9.972 0 0 1 104.57 12.598 A 16.037 16.037 0 0 1 103.496 13.083 Q 102.92 13.32 102.266 13.545 L 99.287 13.408 A 8.832 8.832 0 0 1 98.154 12.814 A 11.578 11.578 0 0 1 97.256 12.197 A 6.951 6.951 0 0 1 96.595 11.532 Q 96.174 11.05 95.762 10.43 A 9.929 9.929 0 0 1 95.295 9.062 A 12.404 12.404 0 0 1 95.088 8.135 L 94.951 6.768 L 95.225 5.42 A 9.291 9.291 0 0 1 95.668 4.15 A 12.218 12.218 0 0 1 96.172 3.115 A 11.764 11.764 0 0 1 96.799 2.425 Q 97.133 2.085 97.525 1.732 A 20.058 20.058 0 0 1 97.793 1.494 A 7.529 7.529 0 0 1 98.571 0.943 Q 98.986 0.685 99.479 0.439 A 14.024 14.024 0 0 1 99.824 0.273 A 17.312 17.312 0 0 1 101.25 0.408 A 23.469 23.469 0 0 1 102.813 0.674 A 8.117 8.117 0 0 1 104.073 1.104 A 10.767 10.767 0 0 1 105.107 1.621 Z M 16.777 5.01 L 16.094 7.041 L 16.914 9.072 A 5.87 5.87 0 0 0 17.808 9.544 Q 18.269 9.741 18.809 9.893 A 15.65 15.65 0 0 0 19.893 9.339 A 19.027 19.027 0 0 0 20.566 8.945 L 20.977 7.178 L 20.84 6.768 Q 20.684 5.723 20.303 4.609 A 10.09 10.09 0 0 0 19.161 4.073 A 12.352 12.352 0 0 0 18.398 3.799 A 7.35 7.35 0 0 0 17.376 4.487 A 9.12 9.12 0 0 0 16.777 5.01 Z M 71.865 5.01 L 71.182 7.041 L 72.002 9.072 A 5.87 5.87 0 0 0 72.896 9.544 Q 73.357 9.741 73.896 9.893 A 15.65 15.65 0 0 0 74.981 9.339 A 19.027 19.027 0 0 0 75.654 8.945 L 76.064 7.178 L 75.928 6.768 Q 75.771 5.723 75.391 4.609 A 10.09 10.09 0 0 0 74.249 4.073 A 12.352 12.352 0 0 0 73.486 3.799 A 7.35 7.35 0 0 0 72.464 4.487 A 9.12 9.12 0 0 0 71.865 5.01 Z M 99.287 5.01 L 98.604 7.041 L 99.424 9.072 A 5.87 5.87 0 0 0 100.318 9.544 Q 100.779 9.741 101.318 9.893 A 15.65 15.65 0 0 0 102.403 9.339 A 19.027 19.027 0 0 0 103.076 8.945 L 103.486 7.178 L 103.35 6.768 Q 103.193 5.723 102.813 4.609 A 10.09 10.09 0 0 0 101.67 4.073 A 12.352 12.352 0 0 0 100.908 3.799 A 7.35 7.35 0 0 0 99.886 4.487 A 9.12 9.12 0 0 0 99.287 5.01 Z M 42.588 3.906 L 42.725 5.635 L 43.018 6.074 L 45.469 5.635 A 5.632 5.632 0 0 0 46.036 5.195 A 7.38 7.38 0 0 0 46.484 4.766 A 4.253 4.253 0 0 0 46.134 4.088 A 5.172 5.172 0 0 0 45.908 3.76 A 10.936 10.936 0 0 0 44.622 3.411 Q 43.936 3.267 43.164 3.184 A 2.767 2.767 0 0 0 42.837 3.54 A 3.725 3.725 0 0 0 42.588 3.906 Z M 5.996 9.111 L 5.42 9.824 L 6.572 10.82 L 6.426 10.117 L 6.572 9.961 A 1.992 1.992 0 0 0 6.118 9.23 A 2.404 2.404 0 0 0 5.996 9.111 Z M 5.713 6.25 L 5.85 7.256 L 5.566 7.686 L 6.426 7.686 A 3.428 3.428 0 0 0 5.713 6.25 Z M 85.4 11.113 L 84.424 10.547 Q 84.736 11.25 85.264 11.953 L 85.4 11.113 Z M 22.871 5.146 L 22.461 4.736 L 21.924 5.557 A 0.667 0.667 0 0 0 22.297 5.942 A 0.903 0.903 0 0 0 22.334 5.957 A 2.4 2.4 0 0 0 22.581 5.653 Q 22.734 5.432 22.871 5.146 Z M 77.959 5.146 L 77.549 4.736 L 77.012 5.557 A 0.667 0.667 0 0 0 77.385 5.942 A 0.903 0.903 0 0 0 77.422 5.957 A 2.4 2.4 0 0 0 77.669 5.653 Q 77.822 5.432 77.959 5.146 Z M 105.381 5.146 L 104.971 4.736 L 104.434 5.557 A 0.667 0.667 0 0 0 104.807 5.942 A 0.903 0.903 0 0 0 104.844 5.957 A 2.4 2.4 0 0 0 105.091 5.653 Q 105.244 5.432 105.381 5.146 Z M 22.061 9.756 A 2.547 2.547 0 0 0 21.25 10.977 A 1.678 1.678 0 0 0 21.73 10.586 Q 22.014 10.243 22.061 9.756 Z M 77.148 9.756 A 2.547 2.547 0 0 0 76.338 10.977 A 1.678 1.678 0 0 0 76.818 10.586 Q 77.101 10.243 77.148 9.756 Z M 104.57 9.756 A 2.547 2.547 0 0 0 103.76 10.977 A 1.678 1.678 0 0 0 104.24 10.586 Q 104.523 10.243 104.57 9.756 Z M 91.436 8.164 L 90.596 8.584 A 1.684 1.684 0 0 0 90.826 9.043 A 2.184 2.184 0 0 0 91.025 9.287 A 1.479 1.479 0 0 0 91.376 8.623 A 2.151 2.151 0 0 0 91.436 8.164 Z M 17.041 10.83 L 16.504 11.514 L 17.451 11.787 A 1.813 1.813 0 0 0 17.224 11.106 A 2.342 2.342 0 0 0 17.041 10.83 Z M 72.129 10.83 L 71.592 11.514 L 72.539 11.787 A 1.813 1.813 0 0 0 72.312 11.106 A 2.342 2.342 0 0 0 72.129 10.83 Z M 99.551 10.83 L 99.014 11.514 L 99.961 11.787 A 1.813 1.813 0 0 0 99.734 11.106 A 2.342 2.342 0 0 0 99.551 10.83 Z M 28.32 9.561 L 28.037 8.438 L 27.754 9.414 L 28.32 9.561 Z M 60.615 10.801 L 59.912 10.664 L 59.766 11.377 L 60.195 11.514 L 60.615 10.801 Z M 59.912 5.4 L 59.629 5.254 L 59.346 6.104 A 0.976 0.976 0 0 0 59.521 6.18 Q 59.686 6.235 59.912 6.26 L 60.059 5.684 L 59.912 5.4 Z M 14.746 9.482 L 15.01 9.893 L 15.693 9.346 A 0.742 0.742 0 0 0 15.319 8.962 A 0.969 0.969 0 0 0 15.283 8.945 Q 15.131 9.161 14.868 9.384 A 3.872 3.872 0 0 1 14.746 9.482 Z M 69.834 9.482 L 70.098 9.893 L 70.781 9.346 A 0.742 0.742 0 0 0 70.407 8.962 A 0.969 0.969 0 0 0 70.371 8.945 Q 70.219 9.161 69.956 9.384 A 3.872 3.872 0 0 1 69.834 9.482 Z M 97.256 9.482 L 97.52 9.893 L 98.203 9.346 A 0.742 0.742 0 0 0 97.829 8.962 A 0.969 0.969 0 0 0 97.793 8.945 Q 97.641 9.161 97.377 9.384 A 3.872 3.872 0 0 1 97.256 9.482 Z M 83.164 4.648 A 4.462 4.462 0 0 0 83.573 5.396 A 5.496 5.496 0 0 0 83.857 5.781 A 1.653 1.653 0 0 0 83.541 5.046 A 2.416 2.416 0 0 0 83.164 4.649 Z M 17.041 2.168 A 3.175 3.175 0 0 0 17.437 2.713 A 4.256 4.256 0 0 0 17.852 3.115 A 1.022 1.022 0 0 0 17.724 2.656 Q 17.529 2.316 17.041 2.168 Z M 72.129 2.168 A 3.175 3.175 0 0 0 72.525 2.713 A 4.256 4.256 0 0 0 72.939 3.115 A 1.022 1.022 0 0 0 72.812 2.656 Q 72.617 2.316 72.129 2.168 Z M 99.551 2.168 A 3.175 3.175 0 0 0 99.947 2.713 A 4.256 4.256 0 0 0 100.361 3.115 A 1.022 1.022 0 0 0 100.234 2.656 Q 100.039 2.316 99.551 2.168 Z M 14.473 5.684 L 14.609 6.23 Q 14.485 6.275 14.36 6.458 A 1.353 1.353 0 0 0 14.336 6.494 Q 14.354 6.675 14.573 6.755 A 0.721 0.721 0 0 0 14.609 6.768 L 14.746 5.957 A 0.287 0.287 0 0 0 14.654 5.792 Q 14.613 5.754 14.555 5.722 A 0.759 0.759 0 0 0 14.473 5.684 Z M 69.561 5.684 L 69.697 6.23 Q 69.572 6.275 69.448 6.458 A 1.353 1.353 0 0 0 69.424 6.494 Q 69.442 6.675 69.661 6.755 A 0.721 0.721 0 0 0 69.697 6.768 L 69.834 5.957 A 0.287 0.287 0 0 0 69.742 5.792 Q 69.701 5.754 69.643 5.722 A 0.759 0.759 0 0 0 69.561 5.684 Z M 96.982 5.684 L 97.119 6.23 Q 96.994 6.275 96.87 6.458 A 1.353 1.353 0 0 0 96.846 6.494 Q 96.864 6.675 97.083 6.755 A 0.721 0.721 0 0 0 97.119 6.768 L 97.256 5.957 A 0.287 0.287 0 0 0 97.164 5.792 Q 97.123 5.754 97.065 5.722 A 0.759 0.759 0 0 0 96.982 5.684 Z M 84.561 8.301 L 84.141 8.018 L 83.721 8.867 L 83.994 8.867 L 83.994 8.721 L 84.561 8.301 Z M 45.469 7.08 A 2.188 2.188 0 0 0 46.311 7.732 A 2.684 2.684 0 0 0 46.484 7.803 A 3.54 3.54 0 0 0 45.73 7.22 A 4.194 4.194 0 0 0 45.469 7.08 Z M 59.912 9.521 L 59.482 9.238 L 59.346 10.088 Q 59.593 9.953 59.813 9.661 A 2.573 2.573 0 0 0 59.912 9.521 Z M 47.49 2.607 L 47.061 2.178 L 46.768 2.891 L 47.49 2.607 Z M 41.436 6.074 L 41.289 5.928 L 40.85 6.367 L 41.436 6.65 L 41.436 6.074 Z M 89.619 10.547 A 1.37 1.37 0 0 0 90.044 11.276 A 1.792 1.792 0 0 0 90.176 11.387 A 1.691 1.691 0 0 0 89.876 10.82 A 2.259 2.259 0 0 0 89.619 10.547 Z M 13.936 7.178 A 0.941 0.941 0 0 0 14.451 7.795 A 1.357 1.357 0 0 0 14.609 7.861 A 1.324 1.324 0 0 0 14.037 7.232 A 1.705 1.705 0 0 0 13.936 7.178 Z M 69.023 7.178 A 0.941 0.941 0 0 0 69.539 7.795 A 1.357 1.357 0 0 0 69.697 7.861 A 1.324 1.324 0 0 0 69.125 7.232 A 1.705 1.705 0 0 0 69.023 7.178 Z M 96.445 7.178 A 0.941 0.941 0 0 0 96.961 7.795 A 1.357 1.357 0 0 0 97.119 7.861 A 1.324 1.324 0 0 0 96.547 7.232 A 1.705 1.705 0 0 0 96.445 7.178 Z M 59.346 7.109 L 58.916 7.959 Q 59.248 7.607 59.346 7.109 Z M 36.055 6.045 L 35.205 5.625 A 2.415 2.415 0 0 0 36.055 6.045 Z M 60.342 3.125 L 59.629 2.549 A 1.357 1.357 0 0 0 60.102 3.006 A 1.802 1.802 0 0 0 60.342 3.125 Z M 28.174 3.516 A 1.281 1.281 0 0 0 28.56 3.906 A 1.797 1.797 0 0 0 28.877 4.072 A 0.953 0.953 0 0 0 28.465 3.637 A 1.445 1.445 0 0 0 28.174 3.516 Z M 59.209 3.262 L 59.053 3.838 L 59.482 3.975 A 1.225 1.225 0 0 0 59.327 3.445 A 1.59 1.59 0 0 0 59.209 3.262 Z M 19.346 10.703 L 19.893 11.377 Q 19.775 10.918 19.346 10.703 Z M 74.434 10.703 L 74.98 11.377 Q 74.863 10.918 74.434 10.703 Z M 101.855 10.703 L 102.402 11.377 Q 102.285 10.918 101.855 10.703 Z M 35.205 7.588 A 1.204 1.204 0 0 0 35.412 8.05 A 1.672 1.672 0 0 0 35.625 8.291 A 0.983 0.983 0 0 0 35.388 7.766 A 1.402 1.402 0 0 0 35.205 7.588 Z M 15.967 3.115 L 15.693 2.705 L 15.82 3.389 L 15.967 3.115 Z M 71.055 3.115 L 70.781 2.705 L 70.908 3.389 L 71.055 3.115 Z M 98.477 3.115 L 98.203 2.705 L 98.33 3.389 L 98.477 3.115 Z M 84.561 2.969 L 84.424 3.525 L 84.844 3.242 A 0.287 0.287 0 0 0 84.734 3.059 Q 84.667 3.005 84.561 2.969 Z M 35.625 4.492 L 35.352 4.492 L 35.205 4.922 L 35.488 4.922 L 35.625 4.492 Z M 21.787 3.115 L 21.65 3.115 L 21.377 3.525 L 21.787 3.525 L 21.787 3.115 Z M 76.875 3.115 L 76.738 3.115 L 76.465 3.525 L 76.875 3.525 L 76.875 3.115 Z M 104.297 3.115 L 104.16 3.115 L 103.887 3.525 L 104.297 3.525 L 104.297 3.115 Z M 4.141 3.545 L 3.711 2.969 Q 3.828 3.311 4.141 3.545 Z M 15.82 3.652 L 15.693 4.199 L 16.094 3.926 Q 16.062 3.823 15.902 3.707 A 1.46 1.46 0 0 0 15.82 3.652 Z M 70.908 3.652 L 70.781 4.199 L 71.182 3.926 Q 71.15 3.823 70.99 3.707 A 1.46 1.46 0 0 0 70.908 3.652 Z M 98.33 3.652 L 98.203 4.199 L 98.604 3.926 Q 98.572 3.823 98.412 3.707 A 1.46 1.46 0 0 0 98.33 3.652 Z M 89.189 2.129 A 1.145 1.145 0 0 0 88.873 2.476 A 1.497 1.497 0 0 0 88.77 2.686 Q 89.082 2.49 89.189 2.129 Z M 59.346 1.992 L 59.053 2.275 L 59.482 2.412 L 59.482 1.992 L 59.346 1.992 Z M 47.061 10.83 L 46.914 10.83 L 46.768 11.27 L 47.061 11.27 L 47.061 10.83 Z M 4.277 3.975 L 4.141 3.975 L 4.004 4.404 L 4.277 4.404 L 4.277 3.975 Z M 7.422 6.406 L 6.855 6.113 A 0.971 0.971 0 0 0 7.244 6.358 A 1.279 1.279 0 0 0 7.422 6.406 Z M 35.488 2.666 L 35.352 2.666 L 35.205 3.086 L 35.488 3.086 L 35.488 2.666 Z M 30.85 11.387 L 30.283 11.104 A 0.939 0.939 0 0 0 30.818 11.382 A 1.17 1.17 0 0 0 30.85 11.387 Z M 35.625 1.963 L 35.068 1.68 A 0.787 0.787 0 0 0 35.614 1.962 A 0.997 0.997 0 0 0 35.625 1.963 Z M 8.281 3.828 L 8.145 4.111 L 8.418 4.258 L 8.564 3.975 L 8.281 3.828 Z M 18.398 1.221 L 18.262 1.221 L 18.125 1.621 L 18.398 1.621 L 18.398 1.221 Z M 73.486 1.221 L 73.35 1.221 L 73.213 1.621 L 73.486 1.621 L 73.486 1.221 Z M 100.908 1.221 L 100.771 1.221 L 100.635 1.621 L 100.908 1.621 L 100.908 1.221 Z M 33.662 11.104 A 0.665 0.665 0 0 0 34.03 11.502 A 0.864 0.864 0 0 0 34.082 11.523 A 0.659 0.659 0 0 0 33.801 11.176 A 0.954 0.954 0 0 0 33.662 11.104 Z M 91.719 10.41 L 91.436 10.41 L 91.572 10.83 L 91.719 10.41 Z M 15.01 4.199 L 14.883 4.199 L 14.746 4.609 L 15.01 4.463 L 15.01 4.199 Z M 70.098 4.199 L 69.971 4.199 L 69.834 4.609 L 70.098 4.463 L 70.098 4.199 Z M 97.52 4.199 L 97.393 4.199 L 97.256 4.609 L 97.52 4.463 L 97.52 4.199 Z M 40.42 4.922 A 0.575 0.575 0 0 0 40.667 5.321 A 0.791 0.791 0 0 0 40.713 5.352 Q 40.654 5.059 40.42 4.922 Z M 83.447 6.338 L 83.018 6.201 Q 83.049 6.343 83.214 6.441 A 0.824 0.824 0 0 0 83.301 6.484 L 83.447 6.338 Z M 39.99 9.531 L 40.283 9.961 A 0.685 0.685 0 0 0 40.185 9.719 A 0.631 0.631 0 0 0 39.99 9.531 Z M 83.994 4.375 L 84.141 4.229 L 83.721 4.092 Q 83.774 4.216 83.957 4.349 A 1.579 1.579 0 0 0 83.994 4.375 Z M 90.322 9.424 L 90.742 9.707 A 0.529 0.529 0 0 0 90.548 9.514 Q 90.452 9.457 90.322 9.424 Z M 21.523 3.926 L 21.113 3.652 A 0.418 0.418 0 0 0 21.218 3.816 Q 21.294 3.887 21.41 3.912 A 0.622 0.622 0 0 0 21.523 3.926 Z M 76.611 3.926 L 76.201 3.652 A 0.418 0.418 0 0 0 76.306 3.816 Q 76.382 3.887 76.497 3.912 A 0.622 0.622 0 0 0 76.611 3.926 Z M 104.033 3.926 L 103.623 3.652 A 0.418 0.418 0 0 0 103.728 3.816 Q 103.804 3.887 103.919 3.912 A 0.622 0.622 0 0 0 104.033 3.926 Z M 34.785 8.711 L 34.648 8.994 L 34.922 8.994 L 34.922 8.711 L 34.785 8.711 Z M 20.303 11.65 L 20.029 11.24 Q 20.078 11.504 20.303 11.65 Z M 75.391 11.65 L 75.117 11.24 Q 75.166 11.504 75.391 11.65 Z M 102.813 11.65 L 102.539 11.24 Q 102.588 11.504 102.813 11.65 Z M 90.879 7.314 L 90.742 7.314 L 90.879 7.734 L 90.879 7.314 Z M 84.561 9.287 L 84.424 9.287 L 84.561 9.707 L 84.561 9.287 Z M 23.555 8.799 L 23.145 8.535 A 0.538 0.538 0 0 0 23.505 8.79 A 0.712 0.712 0 0 0 23.555 8.799 Z M 78.643 8.799 L 78.232 8.535 A 0.538 0.538 0 0 0 78.593 8.79 A 0.712 0.712 0 0 0 78.643 8.799 Z M 106.064 8.799 L 105.654 8.535 A 0.538 0.538 0 0 0 106.014 8.79 A 0.712 0.712 0 0 0 106.064 8.799 Z M 22.061 2.578 L 21.924 2.578 L 22.061 2.979 L 22.061 2.578 Z M 77.148 2.578 L 77.012 2.578 L 77.148 2.979 L 77.148 2.578 Z M 104.57 2.578 L 104.434 2.578 L 104.57 2.979 L 104.57 2.578 Z M 47.575 6.91 A 0.773 0.773 0 0 0 47.637 6.934 Q 47.613 6.783 47.435 6.69 A 0.797 0.797 0 0 0 47.344 6.65 Q 47.369 6.821 47.575 6.91 Z M 41.865 6.934 A 0.331 0.331 0 0 0 41.967 7.109 Q 42.012 7.151 42.076 7.186 A 0.832 0.832 0 0 0 42.158 7.227 Q 42.1 7.08 41.865 6.934 Z M 46.484 7.949 A 0.341 0.341 0 0 0 46.591 8.131 Q 46.637 8.174 46.702 8.21 A 0.815 0.815 0 0 0 46.768 8.242 A 0.358 0.358 0 0 0 46.702 8.124 Q 46.628 8.033 46.484 7.949 Z M 40.373 7.35 A 0.825 0.825 0 0 0 40.42 7.373 Q 40.385 7.244 40.192 7.115 A 1.375 1.375 0 0 0 40.137 7.08 Q 40.18 7.246 40.373 7.35 Z M 46.631 1.748 Q 46.68 1.885 46.914 2.031 A 0.304 0.304 0 0 0 46.787 1.827 Q 46.74 1.792 46.676 1.765 A 0.754 0.754 0 0 0 46.631 1.748 Z M 88.213 11.523 A 0.342 0.342 0 0 0 88.364 11.745 A 0.576 0.576 0 0 0 88.486 11.806 A 0.287 0.287 0 0 0 88.44 11.716 Q 88.386 11.643 88.279 11.567 A 1.393 1.393 0 0 0 88.213 11.523 Z M 23.008 7.314 A 0.32 0.32 0 0 0 23.111 7.485 Q 23.177 7.544 23.281 7.588 A 0.326 0.326 0 0 0 23.151 7.39 Q 23.103 7.354 23.039 7.327 A 0.738 0.738 0 0 0 23.008 7.314 Z M 78.096 7.314 A 0.32 0.32 0 0 0 78.199 7.485 Q 78.265 7.544 78.369 7.588 A 0.326 0.326 0 0 0 78.239 7.39 Q 78.191 7.354 78.126 7.327 A 0.738 0.738 0 0 0 78.096 7.314 Z M 105.518 7.314 A 0.32 0.32 0 0 0 105.621 7.485 Q 105.687 7.544 105.791 7.588 A 0.326 0.326 0 0 0 105.661 7.39 Q 105.613 7.354 105.548 7.327 A 0.738 0.738 0 0 0 105.518 7.314 Z M 8.564 4.834 L 8.711 5.117 L 8.711 4.834 L 8.564 4.834 Z M 41.865 1.748 L 42.012 2.031 L 42.012 1.748 L 41.865 1.748 Z M 19.893 2.031 L 20.029 2.305 L 20.029 2.031 L 19.893 2.031 Z M 74.98 2.031 L 75.117 2.305 L 75.117 2.031 L 74.98 2.031 Z M 102.402 2.031 L 102.539 2.305 L 102.539 2.031 L 102.402 2.031 Z" vector-effect="non-scaling-stroke"/></g></svg>
